<svg width="473" height="406" viewBox="0 0 473 406" fill="none" xmlns="http://www.w3.org/2000/svg">
<g filter="url(#filter0_f_129_358)">
<path d="M216.995 216.501H292.565L249.122 278.398L299.916 279.33L193.302 401.762L219.135 308.418H171.843L216.995 216.501Z" fill="url(#paint0_linear_129_358)"/>
<path d="M333.765 281.647H366.944L347.871 308.824L370.172 309.233L323.362 362.987L334.704 322.004H313.945L333.765 281.647Z" fill="url(#paint1_linear_129_358)"/>
<path d="M103.966 309.132H137.145L118.072 336.308L140.373 336.717L93.5633 390.471L104.906 349.489H84.146L103.966 309.132Z" fill="url(#paint2_linear_129_358)"/>
<path d="M117.988 230.503C178.379 230.503 227.336 182.762 227.336 123.87C227.336 64.9785 178.379 17.2373 117.988 17.2373C57.596 17.2373 8.63892 64.9785 8.63892 123.87C8.63892 182.762 57.596 230.503 117.988 230.503Z" fill="#FA9E42"/>
<g filter="url(#filter1_f_129_358)">
<path d="M110.086 108.706C146.429 89.9778 166.756 58.1099 155.488 37.5273C144.22 16.9447 105.625 15.4417 69.2826 34.1701C32.9403 52.8986 12.6134 84.7665 23.881 105.349C35.1487 125.932 73.7441 127.435 110.086 108.706Z" fill="#F8E36F"/>
</g>
<g filter="url(#filter2_d_129_358)">
<path d="M332.463 296.207H119.947C99.3311 296.192 79.5206 288.44 64.6626 274.574C49.8046 260.708 41.0511 241.802 40.2346 221.816C39.4181 201.829 46.6018 182.311 60.282 167.347C73.9622 152.383 93.0781 143.134 113.628 141.536C116.558 121.459 125.903 102.778 140.346 88.1223C154.79 73.4665 173.606 63.5731 194.147 59.8338C214.688 56.0945 235.92 58.6977 254.857 67.277C273.794 75.8562 289.482 89.9799 299.714 107.661C318.481 101.358 338.758 100.621 357.958 105.546C377.159 110.47 394.412 120.831 407.518 135.309C420.623 149.786 428.987 167.723 431.542 186.831C434.098 205.94 430.729 225.354 421.865 242.597C416.663 258.176 406.509 271.755 392.859 281.387C379.209 291.018 362.765 296.207 345.887 296.207H332.463Z" fill="url(#paint3_linear_129_358)"/>
<path d="M345.887 295.13C354.456 295.13 362.882 293.803 370.93 291.184C378.713 288.652 386.019 284.957 392.646 280.202C399.197 275.501 404.94 269.871 409.715 263.466C414.549 256.982 418.281 249.849 420.808 242.266L420.834 242.188L420.872 242.115C424.232 235.601 426.82 228.709 428.563 221.633C430.356 214.351 431.266 206.827 431.266 199.268C431.266 192.763 430.59 186.263 429.259 179.948C427.961 173.793 426.024 167.74 423.502 161.955C421.026 156.275 417.961 150.796 414.393 145.672C410.858 140.595 406.798 135.822 402.327 131.484C397.856 127.145 392.936 123.207 387.704 119.777C382.422 116.315 376.775 113.342 370.921 110.939C364.959 108.492 358.72 106.613 352.377 105.354C345.867 104.061 339.168 103.406 332.463 103.406C321.362 103.406 310.466 105.179 300.077 108.674L299.201 108.969L298.746 108.185C290.291 93.5989 277.993 81.3494 263.181 72.7608C255.691 68.4173 247.643 65.0608 239.262 62.7846C230.616 60.4362 221.635 59.2456 212.568 59.2456C200.374 59.2456 188.47 61.375 177.187 65.5747C166.288 69.6317 156.29 75.4923 147.47 82.9935C138.7 90.4516 131.423 99.2514 125.84 109.149C120.119 119.289 116.381 130.234 114.727 141.681L114.603 142.538L113.714 142.606C103.77 143.361 94.2014 145.901 85.2757 150.156C76.6029 154.291 68.8583 159.883 62.2572 166.777C48.6934 180.944 41.2234 199.401 41.2234 218.75C41.2234 229.062 43.3047 239.064 47.4094 248.48C49.3823 253.006 51.8243 257.371 54.6675 261.454C57.4838 265.499 60.7183 269.302 64.2809 272.759C67.8436 276.216 71.7638 279.354 75.9325 282.086C80.141 284.845 84.6399 287.214 89.3043 289.128C99.0089 293.111 109.318 295.13 119.946 295.13H332.463H345.887ZM345.887 296.207H332.463H119.946C75.856 296.207 40.1133 261.528 40.1133 218.75C40.1133 178.034 72.4901 144.656 113.628 141.532C120.432 94.4208 162.136 58.1685 212.568 58.1685C249.982 58.1685 282.593 78.1197 299.713 107.657C309.974 104.204 320.992 102.329 332.463 102.329C387.643 102.329 432.376 145.731 432.376 199.268C432.376 214.842 428.591 229.557 421.865 242.597C411.499 273.706 381.401 296.207 345.887 296.207Z" fill="white" fill-opacity="0.5"/>
</g>
</g>
<defs>
<filter id="filter0_f_129_358" x="4.63892" y="13.2373" width="431.737" height="392.525" filterUnits="userSpaceOnUse" color-interpolation-filters="sRGB">
<feFlood flood-opacity="0" result="BackgroundImageFix"/>
<feBlend mode="normal" in="SourceGraphic" in2="BackgroundImageFix" result="shape"/>
<feGaussianBlur stdDeviation="2" result="effect1_foregroundBlur_129_358"/>
</filter>
<filter id="filter1_f_129_358" x="0.772461" y="1.05078" width="177.824" height="140.775" filterUnits="userSpaceOnUse" color-interpolation-filters="sRGB">
<feFlood flood-opacity="0" result="BackgroundImageFix"/>
<feBlend mode="normal" in="SourceGraphic" in2="BackgroundImageFix" result="shape"/>
<feGaussianBlur stdDeviation="10" result="effect1_foregroundBlur_129_358"/>
</filter>
<filter id="filter2_d_129_358" x="20.1133" y="30.1685" width="452.263" height="298.039" filterUnits="userSpaceOnUse" color-interpolation-filters="sRGB">
<feFlood flood-opacity="0" result="BackgroundImageFix"/>
<feColorMatrix in="SourceAlpha" type="matrix" values="0 0 0 0 0 0 0 0 0 0 0 0 0 0 0 0 0 0 127 0" result="hardAlpha"/>
<feOffset dx="10" dy="2"/>
<feGaussianBlur stdDeviation="15"/>
<feColorMatrix type="matrix" values="0 0 0 0 0.258824 0 0 0 0 0.627451 0 0 0 0 0.941176 0 0 0 0.596 0"/>
<feBlend mode="normal" in2="BackgroundImageFix" result="effect1_dropShadow_129_358"/>
<feBlend mode="normal" in="SourceGraphic" in2="effect1_dropShadow_129_358" result="shape"/>
</filter>
<linearGradient id="paint0_linear_129_358" x1="224.097" y1="309.132" x2="164.711" y2="286.693" gradientUnits="userSpaceOnUse">
<stop stop-color="#FFD100"/>
<stop offset="1" stop-color="#FFF0AA"/>
</linearGradient>
<linearGradient id="paint1_linear_129_358" x1="336.886" y1="322.317" x2="310.813" y2="312.466" gradientUnits="userSpaceOnUse">
<stop stop-color="#FFD100"/>
<stop offset="1" stop-color="#FFF0AA"/>
</linearGradient>
<linearGradient id="paint2_linear_129_358" x1="107.087" y1="349.802" x2="81.0146" y2="339.951" gradientUnits="userSpaceOnUse">
<stop stop-color="#FFD100"/>
<stop offset="1" stop-color="#FFF0AA"/>
</linearGradient>
<linearGradient id="paint3_linear_129_358" x1="236.273" y1="58.1709" x2="344.466" y2="327.778" gradientUnits="userSpaceOnUse">
<stop stop-color="white" stop-opacity="0.604"/>
<stop offset="1" stop-color="white" stop-opacity="0.2"/>
</linearGradient>
</defs>
</svg>
