<svg width="464" height="396" viewBox="0 0 464 396" fill="none" xmlns="http://www.w3.org/2000/svg">
<g filter="url(#filter0_f_129_298)">
<path d="M150.286 242.49L224.313 357.409" stroke="#42A0F0" stroke-width="9" stroke-linecap="round"/>
<path d="M168.154 270.725L175.377 237.925" stroke="#42A0F0" stroke-width="9" stroke-linecap="round"/>
<path d="M168.146 270.719L133.928 263.07" stroke="#42A0F0" stroke-width="9" stroke-linecap="round"/>
<path d="M207.627 332.021L241.187 340.07" stroke="#42A0F0" stroke-width="9" stroke-linecap="round"/>
<path d="M207.619 332.016L199.739 365.216" stroke="#42A0F0" stroke-width="9" stroke-linecap="round"/>
<path d="M220.105 240.765L154.543 360.426" stroke="#42A0F0" stroke-width="9" stroke-linecap="round"/>
<path d="M203.832 269.909L236.729 259.552" stroke="#42A0F0" stroke-width="9" stroke-linecap="round"/>
<path d="M203.858 269.889L193.535 237.307" stroke="#42A0F0" stroke-width="9" stroke-linecap="round"/>
<path d="M168.841 333.708L178.478 365.937" stroke="#42A0F0" stroke-width="9" stroke-linecap="round"/>
<path d="M168.866 333.688L135.284 343.693" stroke="#42A0F0" stroke-width="9" stroke-linecap="round"/>
<path d="M256.554 298.567L116.965 303.31" stroke="#42A0F0" stroke-width="9" stroke-linecap="round"/>
<path d="M222.421 299.402L248.08 321.995" stroke="#42A0F0" stroke-width="9" stroke-linecap="round"/>
<path d="M222.361 299.457L246.43 274.536" stroke="#42A0F0" stroke-width="9" stroke-linecap="round"/>
<path d="M148.032 301.986L123.94 326.154" stroke="#42A0F0" stroke-width="9" stroke-linecap="round"/>
<path d="M147.974 302.041L122.289 278.696" stroke="#42A0F0" stroke-width="9" stroke-linecap="round"/>
<path d="M334.941 315.101L306.775 376.473" stroke="#42A0F0" stroke-width="6.00313" stroke-linecap="round"/>
<path d="M327.929 330.037L343.83 323.857" stroke="#42A0F0" stroke-width="6.00313" stroke-linecap="round"/>
<path d="M327.914 330.048L321.708 314.279" stroke="#42A0F0" stroke-width="6.00313" stroke-linecap="round"/>
<path d="M312.924 362.781L318.777 378.398" stroke="#42A0F0" stroke-width="6.00313" stroke-linecap="round"/>
<path d="M312.908 362.793L296.655 368.82" stroke="#42A0F0" stroke-width="6.00313" stroke-linecap="round"/>
<path d="M355.022 342.466L286.158 349.485" stroke="#42A0F0" stroke-width="6.00313" stroke-linecap="round"/>
<path d="M338.173 343.962L351.662 354.393" stroke="#42A0F0" stroke-width="6.00313" stroke-linecap="round"/>
<path d="M338.103 344.048L349.202 330.921" stroke="#42A0F0" stroke-width="6.00313" stroke-linecap="round"/>
<path d="M301.515 347.792L290.38 360.546" stroke="#42A0F0" stroke-width="6.00313" stroke-linecap="round"/>
<path d="M301.447 347.877L287.918 337.074" stroke="#42A0F0" stroke-width="6.00313" stroke-linecap="round"/>
<path d="M340.637 373.022L299.941 318.669" stroke="#42A0F0" stroke-width="6.00313" stroke-linecap="round"/>
<path d="M330.824 359.657L328.365 376.12" stroke="#42A0F0" stroke-width="6.00313" stroke-linecap="round"/>
<path d="M330.801 359.638L347.996 362.319" stroke="#42A0F0" stroke-width="6.00313" stroke-linecap="round"/>
<path d="M309.096 330.688L292.213 327.787" stroke="#42A0F0" stroke-width="6.00313" stroke-linecap="round"/>
<path d="M309.073 330.669L311.845 313.986" stroke="#42A0F0" stroke-width="6.00313" stroke-linecap="round"/>
<path d="M118.208 230.887C178.599 230.887 227.556 183.146 227.556 124.254C227.556 65.3623 178.599 17.6211 118.208 17.6211C57.816 17.6211 8.85889 65.3623 8.85889 124.254C8.85889 183.146 57.816 230.887 118.208 230.887Z" fill="#FA9E42"/>
<g filter="url(#filter1_f_129_298)">
<path d="M110.306 109.09C146.648 90.3611 166.975 58.4932 155.707 37.9106C144.44 17.328 105.844 15.825 69.5022 34.5534C33.1599 53.2819 12.833 85.1498 24.1006 105.732C35.3683 126.315 73.9637 127.818 110.306 109.09Z" fill="#F8E36F"/>
</g>
<g filter="url(#filter2_d_129_298)">
<path d="M323.802 307.362H111.285C90.6695 307.347 70.859 299.594 56.001 285.728C41.143 271.862 32.3895 252.957 31.573 232.97C30.7564 212.983 37.9402 193.465 51.6204 178.502C65.3006 163.538 84.4165 154.288 104.966 152.69C107.897 132.613 117.241 113.932 131.685 99.2766C146.128 84.6208 164.944 74.7274 185.485 70.9881C206.026 67.2488 227.259 69.852 246.196 78.4313C265.132 87.0105 280.82 101.134 291.052 118.815C309.819 112.512 330.096 111.776 349.295 116.7C368.495 121.623 385.749 131.984 398.854 146.461C411.96 160.938 420.324 178.874 422.88 197.982C425.436 217.09 422.068 236.504 413.206 253.747C408.005 269.327 397.85 282.908 384.2 292.54C370.549 302.173 354.104 307.361 337.225 307.362H323.802Z" fill="url(#paint0_linear_129_298)"/>
<path d="M337.226 306.284C345.796 306.284 354.223 304.956 362.271 302.337C370.054 299.805 377.361 296.11 383.989 291.354C390.54 286.654 396.283 281.022 401.057 274.618C405.891 268.133 409.624 260.999 412.15 253.415L412.176 253.337L412.213 253.264C415.573 246.75 418.16 239.86 419.902 232.783C421.696 225.502 422.605 217.978 422.605 210.421C422.605 203.917 421.93 197.416 420.598 191.101C419.3 184.947 417.363 178.893 414.841 173.108C412.365 167.428 409.3 161.95 405.732 156.825C402.197 151.749 398.138 146.975 393.667 142.637C389.195 138.299 384.275 134.36 379.043 130.931C373.761 127.468 368.115 124.495 362.261 122.092C356.299 119.646 350.059 117.766 343.716 116.507C337.207 115.215 330.507 114.559 323.802 114.559C312.702 114.559 301.805 116.332 291.416 119.828L290.54 120.123L290.085 119.338C281.63 104.752 269.332 92.5028 254.52 83.9142C247.03 79.5707 238.982 76.2142 230.601 73.9379C221.955 71.5896 212.974 70.3989 203.907 70.3989C191.713 70.3989 179.809 72.5283 168.527 76.728C157.627 80.785 147.629 86.6456 138.809 94.1468C130.039 101.605 122.762 110.405 117.179 120.302C111.458 130.442 107.72 141.388 106.066 152.835L105.943 153.692L105.054 153.759C95.1087 154.514 85.5405 157.055 76.6148 161.31C67.942 165.444 60.1974 171.036 53.5963 177.931C40.0325 192.097 32.5625 210.555 32.5625 229.903C32.5625 240.215 34.6438 250.218 38.7485 259.634C40.7215 264.159 43.1634 268.524 46.0066 272.607C48.8229 276.652 52.0574 280.456 55.62 283.912C59.1827 287.369 63.1029 290.507 67.2716 293.24C71.4801 295.998 75.979 298.367 80.6434 300.282C90.348 304.264 100.658 306.284 111.286 306.284H323.802H337.226ZM337.226 307.361H323.802H111.286C67.1951 307.361 31.4524 272.682 31.4524 229.903C31.4524 189.188 63.8292 155.809 104.967 152.685C111.771 105.574 153.476 69.3218 203.907 69.3218C241.322 69.3218 273.932 89.2732 291.053 118.81C301.313 115.358 312.331 113.482 323.802 113.482C378.983 113.482 423.715 156.884 423.715 210.421C423.715 225.992 419.93 240.708 413.206 253.746C402.843 284.858 372.743 307.361 337.226 307.361Z" fill="white" fill-opacity="0.5"/>
</g>
</g>
<defs>
<filter id="filter0_f_129_298" x="4.85889" y="13.6211" width="422.856" height="371.754" filterUnits="userSpaceOnUse" color-interpolation-filters="sRGB">
<feFlood flood-opacity="0" result="BackgroundImageFix"/>
<feBlend mode="normal" in="SourceGraphic" in2="BackgroundImageFix" result="shape"/>
<feGaussianBlur stdDeviation="2" result="effect1_foregroundBlur_129_298"/>
</filter>
<filter id="filter1_f_129_298" x="0.992188" y="1.43408" width="177.824" height="140.775" filterUnits="userSpaceOnUse" color-interpolation-filters="sRGB">
<feFlood flood-opacity="0" result="BackgroundImageFix"/>
<feBlend mode="normal" in="SourceGraphic" in2="BackgroundImageFix" result="shape"/>
<feGaussianBlur stdDeviation="10" result="effect1_foregroundBlur_129_298"/>
</filter>
<filter id="filter2_d_129_298" x="11.4524" y="41.3218" width="452.263" height="298.04" filterUnits="userSpaceOnUse" color-interpolation-filters="sRGB">
<feFlood flood-opacity="0" result="BackgroundImageFix"/>
<feColorMatrix in="SourceAlpha" type="matrix" values="0 0 0 0 0 0 0 0 0 0 0 0 0 0 0 0 0 0 127 0" result="hardAlpha"/>
<feOffset dx="10" dy="2"/>
<feGaussianBlur stdDeviation="15"/>
<feColorMatrix type="matrix" values="0 0 0 0 0.258824 0 0 0 0 0.627451 0 0 0 0 0.941176 0 0 0 0.596 0"/>
<feBlend mode="normal" in2="BackgroundImageFix" result="effect1_dropShadow_129_298"/>
<feBlend mode="normal" in="SourceGraphic" in2="effect1_dropShadow_129_298" result="shape"/>
</filter>
<linearGradient id="paint0_linear_129_298" x1="227.611" y1="69.3252" x2="335.804" y2="338.932" gradientUnits="userSpaceOnUse">
<stop stop-color="white" stop-opacity="0.604"/>
<stop offset="1" stop-color="white" stop-opacity="0.2"/>
</linearGradient>
</defs>
</svg>
