<svg width="463" height="383" viewBox="0 0 463 383" fill="none" xmlns="http://www.w3.org/2000/svg">
<g filter="url(#filter0_f_129_374)">
<path d="M152.387 279.566C152.387 279.566 304.575 280.981 337.525 271.696C370.475 262.412 370.433 214.224 337.525 202.346C304.617 190.468 293.371 232.926 293.371 232.926" stroke="#D0D0D0" stroke-width="20" stroke-linecap="round"/>
<path d="M102.456 329.131C102.456 329.131 214.145 319.34 263.383 329.131C312.621 338.922 296.943 367.009 273.608 368.293C250.272 369.577 228.739 354.7 228.739 354.7" stroke="#D0D0D0" stroke-width="20" stroke-linecap="round"/>
<path d="M340.179 329.059H384.584" stroke="#D0D0D0" stroke-width="20" stroke-linecap="round"/>
<path d="M117.376 230.503C177.767 230.503 226.725 182.762 226.725 123.87C226.725 64.9785 177.767 17.2373 117.376 17.2373C56.9841 17.2373 8.02698 64.9785 8.02698 123.87C8.02698 182.762 56.9841 230.503 117.376 230.503Z" fill="#FA9E42"/>
<g filter="url(#filter1_f_129_374)">
<path d="M109.474 108.706C145.816 89.9778 166.143 58.1099 154.876 37.5273C143.608 16.9447 105.012 15.4417 68.6702 34.1701C32.328 52.8986 12.0011 84.7665 23.2687 105.349C34.5364 125.932 73.1318 127.435 109.474 108.706Z" fill="#F8E36F"/>
</g>
<g filter="url(#filter2_d_129_374)">
<path d="M322.97 302.67H110.453C89.8377 302.655 70.0272 294.902 55.1692 281.036C40.3112 267.17 31.5577 248.265 30.7412 228.278C29.9246 208.292 37.1084 188.773 50.7886 173.81C64.4688 158.846 83.5847 149.597 104.135 147.998C107.065 127.921 116.409 109.241 130.853 94.5847C145.297 79.9289 164.112 70.0355 184.654 66.2962C205.195 62.557 226.427 65.1601 245.364 73.7394C264.301 82.3186 279.988 96.4423 290.221 114.123C308.988 107.82 329.265 107.084 348.465 112.008C367.665 116.932 384.918 127.294 398.024 141.771C411.13 156.248 419.494 174.185 422.049 193.294C424.604 212.402 421.235 231.816 412.372 249.059C407.17 264.638 397.015 278.217 383.365 287.849C369.715 297.48 353.272 302.669 336.394 302.67H322.97Z" fill="url(#paint0_linear_129_374)"/>
<path d="M336.394 301.593C344.963 301.593 353.389 300.265 361.437 297.647C369.219 295.115 376.526 291.42 383.153 286.664C389.704 281.964 395.447 276.333 400.222 269.929C405.056 263.445 408.788 256.312 411.315 248.728L411.341 248.65L411.379 248.577C414.739 242.063 417.327 235.172 419.07 228.095C420.863 220.813 421.773 213.289 421.773 205.731C421.773 199.226 421.097 192.725 419.765 186.41C418.467 180.256 416.531 174.202 414.009 168.417C411.533 162.737 408.468 157.259 404.899 152.134C401.365 147.058 397.305 142.284 392.834 137.946C388.363 133.608 383.443 129.669 378.211 126.24C372.929 122.778 367.282 119.804 361.428 117.402C355.466 114.955 349.227 113.076 342.884 111.816C336.374 110.524 329.675 109.869 322.97 109.869C311.869 109.869 300.973 111.641 290.584 115.137L289.708 115.432L289.253 114.647C280.798 100.061 268.5 87.8118 253.688 79.2232C246.198 74.8797 238.15 71.5232 229.769 69.247C221.123 66.8986 212.141 65.708 203.075 65.708C190.881 65.708 178.977 67.8374 167.694 72.0371C156.795 76.0941 146.797 81.9547 137.977 89.4559C129.207 96.914 121.93 105.714 116.347 115.611C110.626 125.751 106.887 136.697 105.234 148.144L105.11 149.001L104.221 149.068C94.2765 149.823 84.7084 152.364 75.7827 156.619C67.1098 160.753 59.3653 166.345 52.7642 173.24C39.2004 187.406 31.7304 205.864 31.7304 225.212C31.7304 235.524 33.8116 245.527 37.9164 254.943C39.8893 259.468 42.3313 263.833 45.1744 267.916C47.9908 271.961 51.2252 275.765 54.7879 279.221C58.3505 282.678 62.2707 285.816 66.4395 288.549C70.6479 291.307 75.1468 293.676 79.8112 295.591C89.5159 299.573 99.8254 301.593 110.453 301.593H322.97H336.394ZM336.394 302.67H322.97H110.453C66.363 302.67 30.6202 267.991 30.6202 225.212C30.6202 184.497 62.9971 151.119 104.135 147.994C110.939 100.883 152.643 64.6309 203.075 64.6309C240.489 64.6309 273.1 84.5821 290.22 114.119C300.48 110.667 311.499 108.791 322.97 108.791C378.15 108.791 422.883 152.193 422.883 205.731C422.883 221.305 419.098 236.02 412.372 249.059C402.006 280.168 371.908 302.67 336.394 302.67Z" fill="white" fill-opacity="0.5"/>
</g>
</g>
<defs>
<filter id="filter0_f_129_374" x="4.02698" y="13.2373" width="422.856" height="369.134" filterUnits="userSpaceOnUse" color-interpolation-filters="sRGB">
<feFlood flood-opacity="0" result="BackgroundImageFix"/>
<feBlend mode="normal" in="SourceGraphic" in2="BackgroundImageFix" result="shape"/>
<feGaussianBlur stdDeviation="2" result="effect1_foregroundBlur_129_374"/>
</filter>
<filter id="filter1_f_129_374" x="0.160156" y="1.05078" width="177.824" height="140.775" filterUnits="userSpaceOnUse" color-interpolation-filters="sRGB">
<feFlood flood-opacity="0" result="BackgroundImageFix"/>
<feBlend mode="normal" in="SourceGraphic" in2="BackgroundImageFix" result="shape"/>
<feGaussianBlur stdDeviation="10" result="effect1_foregroundBlur_129_374"/>
</filter>
<filter id="filter2_d_129_374" x="10.6202" y="36.6309" width="452.263" height="298.039" filterUnits="userSpaceOnUse" color-interpolation-filters="sRGB">
<feFlood flood-opacity="0" result="BackgroundImageFix"/>
<feColorMatrix in="SourceAlpha" type="matrix" values="0 0 0 0 0 0 0 0 0 0 0 0 0 0 0 0 0 0 127 0" result="hardAlpha"/>
<feOffset dx="10" dy="2"/>
<feGaussianBlur stdDeviation="15"/>
<feColorMatrix type="matrix" values="0 0 0 0 0.258824 0 0 0 0 0.627451 0 0 0 0 0.941176 0 0 0 0.596 0"/>
<feBlend mode="normal" in2="BackgroundImageFix" result="effect1_dropShadow_129_374"/>
<feBlend mode="normal" in="SourceGraphic" in2="effect1_dropShadow_129_374" result="shape"/>
</filter>
<linearGradient id="paint0_linear_129_374" x1="226.779" y1="64.6333" x2="334.972" y2="334.24" gradientUnits="userSpaceOnUse">
<stop stop-color="white" stop-opacity="0.604"/>
<stop offset="1" stop-color="white" stop-opacity="0.2"/>
</linearGradient>
</defs>
</svg>
