<svg width="463" height="373" viewBox="0 0 463 373" fill="none" xmlns="http://www.w3.org/2000/svg">
<g filter="url(#filter0_f_129_122)">
<path d="M117.547 230.58C177.938 230.58 226.895 182.839 226.895 123.947C226.895 65.0557 177.938 17.3145 117.547 17.3145C57.1549 17.3145 8.19775 65.0557 8.19775 123.947C8.19775 182.839 57.1549 230.58 117.547 230.58Z" fill="#FA9E42"/>
<g filter="url(#filter1_f_129_122)">
<path d="M109.646 108.784C145.988 90.0554 166.315 58.1875 155.047 37.6049C143.779 17.0224 105.184 15.5193 68.8418 34.2478C32.4995 52.9763 12.1726 84.8442 23.4402 105.427C34.7079 126.009 73.3033 127.512 109.646 108.784Z" fill="#F8E36F"/>
</g>
<path d="M117.18 311.551C118.956 311.57 136.961 338.846 136.961 349.445C136.961 354.535 134.877 359.417 131.167 363.016C127.457 366.615 122.426 368.637 117.18 368.637C111.934 368.637 106.903 366.615 103.193 363.016C99.4837 359.417 97.3997 354.535 97.3997 349.445C97.3997 338.847 115.405 311.531 117.18 311.551Z" fill="#42A0F0"/>
<path d="M102.099 356.619C104.076 357.205 106.588 354.793 107.71 351.232C108.832 347.671 108.139 344.309 106.163 343.723C104.186 343.136 101.675 345.548 100.552 349.109C99.4303 352.67 100.123 356.032 102.099 356.619Z" fill="white"/>
<path d="M220.423 311.551C222.2 311.57 240.204 338.846 240.204 349.445C240.204 354.535 238.12 359.417 234.41 363.016C230.701 366.615 225.669 368.637 220.423 368.637C215.177 368.637 210.146 366.615 206.436 363.016C202.727 359.417 200.643 354.535 200.643 349.445C200.643 338.847 218.648 311.531 220.423 311.551Z" fill="#42A0F0"/>
<path d="M205.342 356.619C207.319 357.205 209.831 354.793 210.953 351.232C212.075 347.671 211.383 344.309 209.406 343.723C207.43 343.136 204.918 345.548 203.796 349.109C202.673 352.67 203.366 356.032 205.342 356.619Z" fill="white"/>
<path d="M323.666 311.551C325.442 311.57 343.446 338.846 343.446 349.445C343.446 354.535 341.362 359.417 337.653 363.016C333.943 366.615 328.912 368.637 323.666 368.637C318.42 368.637 313.389 366.615 309.679 363.016C305.97 359.417 303.885 354.535 303.885 349.445C303.885 338.847 321.891 311.531 323.666 311.551Z" fill="#42A0F0"/>
<path d="M308.585 356.619C310.561 357.205 313.073 354.793 314.196 351.232C315.318 347.671 314.625 344.309 312.649 343.723C310.672 343.136 308.16 345.548 307.038 349.109C305.916 352.67 306.608 356.032 308.585 356.619Z" fill="white"/>
<path d="M169.357 227.537C171.133 227.556 189.137 254.831 189.137 265.431C189.137 270.521 187.053 275.403 183.344 279.002C179.634 282.601 174.603 284.623 169.357 284.623C164.111 284.623 159.08 282.601 155.37 279.002C151.66 275.403 149.576 270.521 149.576 265.431C149.576 254.833 167.582 227.517 169.357 227.537Z" fill="#42A0F0"/>
<path d="M154.276 272.604C156.253 273.19 158.765 270.779 159.887 267.218C161.009 263.657 160.316 260.294 158.34 259.708C156.363 259.122 153.851 261.533 152.729 265.095C151.607 268.656 152.3 272.018 154.276 272.604Z" fill="white"/>
<path d="M278.151 227.537C279.927 227.556 297.932 254.831 297.932 265.431C297.932 270.521 295.848 275.403 292.138 279.002C288.428 282.601 283.397 284.623 278.151 284.623C272.905 284.623 267.874 282.601 264.164 279.002C260.455 275.403 258.371 270.521 258.371 265.431C258.371 254.833 276.376 227.517 278.151 227.537Z" fill="#42A0F0"/>
<path d="M263.069 272.604C265.046 273.19 267.558 270.779 268.68 267.218C269.802 263.657 269.109 260.294 267.133 259.708C265.156 259.122 262.645 261.533 261.522 265.095C260.4 268.656 261.093 272.018 263.069 272.604Z" fill="white"/>
<g filter="url(#filter2_d_129_122)">
<path d="M322.757 299.703H110.24C89.6246 299.687 69.8141 291.935 54.9561 278.069C40.0981 264.203 31.3446 245.297 30.528 225.311C29.7115 205.324 36.8953 185.806 50.5755 170.842C64.2556 155.879 83.3716 146.629 103.921 145.031C106.852 124.954 116.196 106.273 130.64 91.6174C145.083 76.9617 163.899 67.0682 184.44 63.3289C204.981 59.5897 226.214 62.1928 245.151 70.7721C264.087 79.3514 279.775 93.475 290.007 111.156C308.775 104.853 329.051 104.116 348.252 109.041C367.452 113.965 384.705 124.326 397.811 138.804C410.917 153.281 419.281 171.218 421.836 190.327C424.391 209.435 421.022 228.849 412.158 246.092C406.957 261.671 396.802 275.25 383.152 284.882C369.502 294.513 353.058 299.702 336.18 299.703H322.757Z" fill="url(#paint0_linear_129_122)"/>
<path d="M336.18 298.625C344.75 298.625 353.175 297.297 361.223 294.679C369.006 292.147 376.312 288.452 382.939 283.697C389.491 278.996 395.233 273.365 400.008 266.961C404.842 260.477 408.575 253.344 411.102 245.76L411.127 245.683L411.165 245.61C414.526 239.095 417.113 232.204 418.856 225.127C420.65 217.846 421.559 210.321 421.559 202.763C421.559 196.258 420.884 189.758 419.552 183.442C418.254 177.288 416.317 171.234 413.795 165.449C411.319 159.77 408.254 154.291 404.686 149.166C401.151 144.09 397.092 139.317 392.62 134.978C388.149 130.64 383.229 126.701 377.997 123.272C372.715 119.81 367.069 116.836 361.214 114.434C355.252 111.987 349.013 110.108 342.67 108.848C336.161 107.556 329.461 106.901 322.757 106.901C311.656 106.901 300.759 108.673 290.37 112.169L289.494 112.464L289.039 111.679C280.584 97.0935 268.286 84.8441 253.475 76.2555C245.984 71.9119 237.936 68.5555 229.555 66.2792C220.909 63.9309 211.928 62.7402 202.862 62.7402C190.667 62.7402 178.763 64.8696 167.481 69.0693C156.581 73.1263 146.583 78.9869 137.763 86.4881C128.994 93.9462 121.716 102.746 116.133 112.643C110.413 122.783 106.674 133.729 105.02 145.176L104.897 146.033L104.008 146.1C94.0628 146.856 84.4946 149.396 75.5689 153.651C66.8961 157.785 59.1515 163.378 52.5504 170.272C38.9866 184.438 31.5166 202.896 31.5166 222.245C31.5166 232.556 33.5979 242.559 37.7026 251.975C39.6756 256.5 42.1175 260.865 44.9607 264.949C47.7771 268.993 51.0115 272.797 54.5741 276.253C58.1368 279.71 62.057 282.848 66.2257 285.581C70.4342 288.339 74.9331 290.709 79.5975 292.623C89.3021 296.605 99.6116 298.625 110.24 298.625H322.757H336.18ZM336.18 299.702H322.757H110.24C66.1492 299.702 30.4065 265.023 30.4065 222.245C30.4065 181.529 62.7833 148.151 103.921 145.027C110.726 97.9155 152.43 61.6631 202.862 61.6631C240.276 61.6631 272.886 81.6144 290.007 111.151C300.267 107.699 311.285 105.824 322.757 105.824C377.936 105.824 422.669 149.225 422.669 202.763C422.669 218.337 418.884 233.052 412.158 246.092C401.792 277.201 371.694 299.702 336.18 299.702Z" fill="white" fill-opacity="0.5"/>
</g>
</g>
<defs>
<filter id="filter0_f_129_122" x="4.19775" y="13.3145" width="422.471" height="359.323" filterUnits="userSpaceOnUse" color-interpolation-filters="sRGB">
<feFlood flood-opacity="0" result="BackgroundImageFix"/>
<feBlend mode="normal" in="SourceGraphic" in2="BackgroundImageFix" result="shape"/>
<feGaussianBlur stdDeviation="2" result="effect1_foregroundBlur_129_122"/>
</filter>
<filter id="filter1_f_129_122" x="0.331787" y="1.12842" width="177.824" height="140.775" filterUnits="userSpaceOnUse" color-interpolation-filters="sRGB">
<feFlood flood-opacity="0" result="BackgroundImageFix"/>
<feBlend mode="normal" in="SourceGraphic" in2="BackgroundImageFix" result="shape"/>
<feGaussianBlur stdDeviation="10" result="effect1_foregroundBlur_129_122"/>
</filter>
<filter id="filter2_d_129_122" x="10.4065" y="33.6631" width="452.263" height="298.04" filterUnits="userSpaceOnUse" color-interpolation-filters="sRGB">
<feFlood flood-opacity="0" result="BackgroundImageFix"/>
<feColorMatrix in="SourceAlpha" type="matrix" values="0 0 0 0 0 0 0 0 0 0 0 0 0 0 0 0 0 0 127 0" result="hardAlpha"/>
<feOffset dx="10" dy="2"/>
<feGaussianBlur stdDeviation="15"/>
<feColorMatrix type="matrix" values="0 0 0 0 0.258824 0 0 0 0 0.627451 0 0 0 0 0.941176 0 0 0 0.596 0"/>
<feBlend mode="normal" in2="BackgroundImageFix" result="effect1_dropShadow_129_122"/>
<feBlend mode="normal" in="SourceGraphic" in2="effect1_dropShadow_129_122" result="shape"/>
</filter>
<linearGradient id="paint0_linear_129_122" x1="226.566" y1="61.666" x2="334.759" y2="331.273" gradientUnits="userSpaceOnUse">
<stop stop-color="white" stop-opacity="0.604"/>
<stop offset="1" stop-color="white" stop-opacity="0.2"/>
</linearGradient>
</defs>
</svg>
