<svg width="481" height="392" viewBox="0 0 481 392" fill="none" xmlns="http://www.w3.org/2000/svg">
<g filter="url(#filter0_f_129_662)">
<path d="M167.013 238.489L241.04 353.408" stroke="#42A0F0" stroke-width="9" stroke-linecap="round"/>
<path d="M184.881 266.724L192.104 233.924" stroke="#42A0F0" stroke-width="9" stroke-linecap="round"/>
<path d="M184.873 266.718L150.655 259.068" stroke="#42A0F0" stroke-width="9" stroke-linecap="round"/>
<path d="M224.354 328.02L257.914 336.069" stroke="#42A0F0" stroke-width="9" stroke-linecap="round"/>
<path d="M224.346 328.014L216.466 361.213" stroke="#42A0F0" stroke-width="9" stroke-linecap="round"/>
<path d="M236.831 236.764L171.27 356.425" stroke="#42A0F0" stroke-width="9" stroke-linecap="round"/>
<path d="M220.559 265.908L253.456 255.551" stroke="#42A0F0" stroke-width="9" stroke-linecap="round"/>
<path d="M220.585 265.888L210.262 233.305" stroke="#42A0F0" stroke-width="9" stroke-linecap="round"/>
<path d="M185.567 329.708L195.204 361.937" stroke="#42A0F0" stroke-width="9" stroke-linecap="round"/>
<path d="M185.592 329.687L152.011 339.691" stroke="#42A0F0" stroke-width="9" stroke-linecap="round"/>
<path d="M273.28 294.566L133.691 299.309" stroke="#42A0F0" stroke-width="9" stroke-linecap="round"/>
<path d="M239.148 295.4L264.806 317.993" stroke="#42A0F0" stroke-width="9" stroke-linecap="round"/>
<path d="M239.087 295.456L263.157 270.535" stroke="#42A0F0" stroke-width="9" stroke-linecap="round"/>
<path d="M164.76 297.985L140.667 322.154" stroke="#42A0F0" stroke-width="9" stroke-linecap="round"/>
<path d="M164.701 298.041L139.016 274.696" stroke="#42A0F0" stroke-width="9" stroke-linecap="round"/>
<path d="M351.669 311.1L323.502 372.472" stroke="#42A0F0" stroke-width="6.00313" stroke-linecap="round"/>
<path d="M344.657 326.036L360.558 319.856" stroke="#42A0F0" stroke-width="6.00313" stroke-linecap="round"/>
<path d="M344.641 326.048L338.436 310.278" stroke="#42A0F0" stroke-width="6.00313" stroke-linecap="round"/>
<path d="M329.65 358.78L335.504 374.398" stroke="#42A0F0" stroke-width="6.00313" stroke-linecap="round"/>
<path d="M329.635 358.793L313.382 364.819" stroke="#42A0F0" stroke-width="6.00313" stroke-linecap="round"/>
<path d="M371.749 338.466L302.886 345.485" stroke="#42A0F0" stroke-width="6.00313" stroke-linecap="round"/>
<path d="M354.901 339.961L368.39 350.392" stroke="#42A0F0" stroke-width="6.00313" stroke-linecap="round"/>
<path d="M354.83 340.048L365.929 326.921" stroke="#42A0F0" stroke-width="6.00313" stroke-linecap="round"/>
<path d="M318.243 343.791L307.108 356.545" stroke="#42A0F0" stroke-width="6.00313" stroke-linecap="round"/>
<path d="M318.175 343.877L304.646 333.074" stroke="#42A0F0" stroke-width="6.00313" stroke-linecap="round"/>
<path d="M357.364 369.021L316.667 314.668" stroke="#42A0F0" stroke-width="6.00313" stroke-linecap="round"/>
<path d="M347.551 355.656L345.092 372.119" stroke="#42A0F0" stroke-width="6.00313" stroke-linecap="round"/>
<path d="M347.528 355.637L364.722 358.318" stroke="#42A0F0" stroke-width="6.00313" stroke-linecap="round"/>
<path d="M325.822 326.687L308.939 323.786" stroke="#42A0F0" stroke-width="6.00313" stroke-linecap="round"/>
<path d="M325.799 326.667L328.571 309.984" stroke="#42A0F0" stroke-width="6.00313" stroke-linecap="round"/>
<path d="M119.527 6.85804C127.309 6.85614 135.071 7.61903 142.694 9.13503C157.407 12.0752 171.377 17.8075 183.799 26.0024C201.01 37.3203 214.76 52.9272 223.606 71.183C232.451 89.4388 236.065 109.669 234.067 129.748C232.069 149.827 224.533 169.014 212.252 185.29C199.97 201.567 183.396 214.334 164.272 222.248C157.32 225.114 150.092 227.302 142.693 228.781C126.651 231.937 110.099 231.74 94.1407 228.203C78.1826 224.667 63.1844 217.871 50.1453 208.27C37.1061 198.669 26.3253 186.482 18.521 172.521C10.7167 158.56 6.06809 143.146 4.88484 127.306C17.4644 130.162 30.5317 130.346 43.1913 127.844C54.5514 125.587 65.3422 121.182 74.948 114.879C89.2269 105.527 100.404 92.3567 107.124 76.9655C109.395 71.7528 111.128 66.3347 112.299 60.7906C114.793 48.9116 114.701 36.6578 112.028 24.8155C110.683 18.8939 108.694 13.1274 106.095 7.61309C110.554 7.10971 115.038 6.8576 119.527 6.85804V6.85804Z" fill="#713FFD"/>
<g filter="url(#filter1_f_129_662)">
<path d="M197.316 41.512C171.511 18.9688 137.706 14.5794 121.811 31.7079C105.915 48.8364 113.948 80.9967 139.753 103.54C165.557 126.083 199.362 130.473 215.258 113.344C231.153 96.2155 223.12 64.0552 197.316 41.512Z" fill="#A586FC"/>
</g>
<g filter="url(#filter2_d_129_662)">
<path d="M340.529 303.361H128.013C107.397 303.346 87.5865 295.594 72.7285 281.728C57.8705 267.861 49.117 248.956 48.3005 228.97C47.484 208.983 54.6677 189.465 68.3479 174.501C82.0281 159.537 101.144 150.288 121.694 148.69C124.624 128.612 133.969 109.932 148.412 95.2761C162.856 80.6204 181.672 70.7269 202.213 66.9876C222.754 63.2484 243.986 65.8515 262.923 74.4308C281.86 83.0101 297.548 97.1337 307.78 114.815C326.547 108.512 346.823 107.775 366.023 112.699C385.223 117.623 402.476 127.984 415.582 142.461C428.688 156.937 437.052 174.874 439.608 193.982C442.164 213.09 438.796 232.503 429.933 249.746C424.732 265.326 414.578 278.907 400.927 288.54C387.277 298.172 370.832 303.361 353.953 303.361H340.529Z" fill="url(#paint0_linear_129_662)"/>
<path d="M353.953 302.284C362.523 302.284 370.95 300.956 378.998 298.338C386.782 295.805 394.088 292.11 400.716 287.355C407.267 282.654 413.01 277.023 417.784 270.618C422.619 264.133 426.351 256.999 428.877 249.415L428.903 249.337L428.94 249.264C432.3 242.75 434.887 235.86 436.629 228.784C438.423 221.502 439.332 213.978 439.332 206.422C439.332 199.917 438.657 193.417 437.325 187.101C436.027 180.947 434.09 174.893 431.568 169.108C429.092 163.428 426.027 157.95 422.459 152.825C418.924 147.749 414.865 142.975 410.394 138.637C405.922 134.299 401.002 130.36 395.77 126.931C390.488 123.469 384.842 120.495 378.988 118.093C373.026 115.646 366.786 113.767 360.443 112.507C353.934 111.215 347.234 110.56 340.53 110.56C329.429 110.56 318.532 112.332 308.143 115.828L307.267 116.123L306.812 115.338C298.357 100.753 286.059 88.503 271.248 79.9144C263.757 75.5709 255.709 72.2144 247.328 69.9382C238.682 67.5898 229.701 66.3991 220.634 66.3991C208.44 66.3991 196.536 68.5286 185.254 72.7282C174.354 76.7853 164.356 82.6458 155.536 90.147C146.767 97.6051 139.489 106.405 133.906 116.302C128.186 126.442 124.447 137.388 122.793 148.835L122.67 149.692L121.781 149.759C111.836 150.515 102.268 153.055 93.3419 157.31C84.669 161.444 76.9245 167.036 70.3234 173.931C56.7596 188.097 49.2896 206.555 49.2896 225.904C49.2896 236.215 51.3708 246.218 55.4756 255.634C57.4485 260.159 59.8905 264.524 62.7336 268.608C65.55 272.652 68.7844 276.456 72.3471 279.912C75.9097 283.369 79.8299 286.507 83.9987 289.24C88.2071 291.998 92.706 294.368 97.3704 296.282C107.075 300.264 117.385 302.284 128.013 302.284H340.53H353.953ZM353.953 303.361H340.53H128.013C83.9222 303.361 48.1794 268.682 48.1794 225.904C48.1794 185.188 80.5563 151.81 121.694 148.685C128.498 101.574 170.203 65.322 220.634 65.322C258.049 65.322 290.659 85.2734 307.78 114.811C318.04 111.358 329.059 109.483 340.53 109.483C395.71 109.483 440.442 152.884 440.442 206.422C440.442 221.992 436.657 236.709 429.933 249.746C419.57 280.859 389.47 303.361 353.953 303.361Z" fill="white" fill-opacity="0.5"/>
</g>
</g>
<defs>
<filter id="filter0_f_129_662" x="0.884766" y="2.85815" width="443.557" height="378.516" filterUnits="userSpaceOnUse" color-interpolation-filters="sRGB">
<feFlood flood-opacity="0" result="BackgroundImageFix"/>
<feBlend mode="normal" in="SourceGraphic" in2="BackgroundImageFix" result="shape"/>
<feGaussianBlur stdDeviation="2" result="effect1_foregroundBlur_129_662"/>
</filter>
<filter id="filter1_f_129_662" x="93.6497" y="1.25928" width="149.769" height="142.533" filterUnits="userSpaceOnUse" color-interpolation-filters="sRGB">
<feFlood flood-opacity="0" result="BackgroundImageFix"/>
<feBlend mode="normal" in="SourceGraphic" in2="BackgroundImageFix" result="shape"/>
<feGaussianBlur stdDeviation="10" result="effect1_foregroundBlur_129_662"/>
</filter>
<filter id="filter2_d_129_662" x="28.1794" y="37.322" width="452.263" height="298.039" filterUnits="userSpaceOnUse" color-interpolation-filters="sRGB">
<feFlood flood-opacity="0" result="BackgroundImageFix"/>
<feColorMatrix in="SourceAlpha" type="matrix" values="0 0 0 0 0 0 0 0 0 0 0 0 0 0 0 0 0 0 127 0" result="hardAlpha"/>
<feOffset dx="10" dy="2"/>
<feGaussianBlur stdDeviation="15"/>
<feColorMatrix type="matrix" values="0 0 0 0 0.258824 0 0 0 0 0.627451 0 0 0 0 0.941176 0 0 0 0.596 0"/>
<feBlend mode="normal" in2="BackgroundImageFix" result="effect1_dropShadow_129_662"/>
<feBlend mode="normal" in="SourceGraphic" in2="effect1_dropShadow_129_662" result="shape"/>
</filter>
<linearGradient id="paint0_linear_129_662" x1="244.339" y1="65.3247" x2="352.532" y2="334.931" gradientUnits="userSpaceOnUse">
<stop stop-color="white" stop-opacity="0.604"/>
<stop offset="1" stop-color="white" stop-opacity="0.2"/>
</linearGradient>
</defs>
</svg>
