<svg width="489" height="413" viewBox="0 0 489 413" fill="none" xmlns="http://www.w3.org/2000/svg">
<g filter="url(#filter0_f_129_722)">
<path d="M233.256 222.961H308.826L265.383 284.858L316.177 285.791L209.563 408.223L235.396 314.878H188.104L233.256 222.961Z" fill="url(#paint0_linear_129_722)"/>
<path d="M350.026 288.107H383.205L364.132 315.284L386.433 315.693L339.623 369.447L350.965 328.464H330.206L350.026 288.107Z" fill="url(#paint1_linear_129_722)"/>
<path d="M120.228 315.591H153.406L134.333 342.768L156.635 343.177L109.824 396.931L121.167 355.948H100.407L120.228 315.591Z" fill="url(#paint2_linear_129_722)"/>
<path d="M118.839 6.16468C126.621 6.16278 134.383 6.92567 142.007 8.44167C156.72 11.3818 170.689 17.1141 183.112 25.3091C200.322 36.6269 214.073 52.2338 222.918 70.4896C231.763 88.7454 235.377 108.976 233.379 129.055C231.381 149.134 223.845 168.32 211.564 184.597C199.282 200.874 182.709 213.64 163.584 221.555C156.632 224.421 149.404 226.609 142.005 228.087C125.963 231.244 109.411 231.047 93.453 227.51C77.4949 223.973 62.4967 217.178 49.4575 207.577C36.4184 197.975 25.6375 185.788 17.8333 171.828C10.029 157.867 5.38035 142.453 4.1971 126.613C16.7766 129.469 29.844 129.653 42.5036 127.151C53.8637 124.894 64.6545 120.488 74.2602 114.186C88.5392 104.833 99.7161 91.6634 106.437 76.2721C108.707 71.0594 110.441 65.6414 111.611 60.0973C114.105 48.2183 114.013 35.9645 111.34 24.1221C109.995 18.2005 108.007 12.4341 105.407 6.91973C109.866 6.41635 114.351 6.16424 118.839 6.16468V6.16468Z" fill="#713FFD"/>
<g filter="url(#filter1_f_129_722)">
<path d="M196.628 40.8182C170.823 18.275 137.019 13.8855 121.123 31.014C105.227 48.1426 113.26 80.3028 139.065 102.846C164.87 125.389 198.674 129.779 214.57 112.65C230.466 95.5216 222.433 63.3614 196.628 40.8182Z" fill="#A586FC"/>
</g>
<g filter="url(#filter2_d_129_722)">
<path d="M348.724 302.667H136.208C115.592 302.652 95.7813 294.9 80.9234 281.033C66.0654 267.167 57.3118 248.262 56.4953 228.275C55.6788 208.289 62.8626 188.77 76.5427 173.807C90.2229 158.843 109.339 149.594 129.889 147.995C132.819 127.918 142.164 109.238 156.607 94.5818C171.051 79.926 189.867 70.0325 210.408 66.2933C230.949 62.554 252.181 65.1571 271.118 73.7364C290.055 82.3157 305.743 96.4394 315.975 114.12C334.742 107.817 355.019 107.081 374.219 112.005C393.419 116.929 410.673 127.291 423.778 141.768C436.884 156.246 445.248 174.182 447.803 193.291C450.359 212.399 446.989 231.813 438.126 249.056C432.924 264.635 422.77 278.214 409.12 287.846C395.47 297.478 379.026 302.666 362.148 302.667H348.724Z" fill="url(#paint3_linear_129_722)"/>
<path d="M362.148 301.59C370.717 301.59 379.143 300.262 387.191 297.644C394.973 295.112 402.28 291.417 408.907 286.662C415.458 281.961 421.201 276.331 425.976 269.926C430.81 263.442 434.542 256.309 437.069 248.725L437.095 248.648L437.133 248.575C440.493 242.06 443.081 235.169 444.824 228.092C446.617 220.811 447.527 213.286 447.527 205.728C447.527 199.223 446.851 192.723 445.519 186.407C444.222 180.253 442.285 174.199 439.763 168.415C437.287 162.735 434.222 157.256 430.653 152.131C427.119 147.055 423.059 142.282 418.588 137.943C414.117 133.605 409.197 129.667 403.965 126.237C398.683 122.775 393.036 119.801 387.182 117.399C381.22 114.952 374.981 113.073 368.638 111.813C362.128 110.521 355.429 109.866 348.724 109.866C337.623 109.866 326.727 111.638 316.338 115.134L315.462 115.429L315.007 114.645C306.552 100.059 294.254 87.8092 279.442 79.2205C271.952 74.877 263.904 71.5205 255.523 69.2443C246.877 66.896 237.896 65.7053 228.829 65.7053C216.635 65.7053 204.731 67.8347 193.448 72.0344C182.549 76.0914 172.551 81.952 163.731 89.4532C154.961 96.9113 147.684 105.711 142.101 115.608C136.38 125.748 132.642 136.694 130.988 148.141L130.864 148.998L129.975 149.065C120.031 149.821 110.462 152.361 101.537 156.616C92.8639 160.751 85.1193 166.343 78.5182 173.237C64.9544 187.404 57.4844 205.861 57.4844 225.21C57.4844 235.521 59.5657 245.524 63.6704 254.94C65.6433 259.466 68.0853 263.831 70.9285 267.914C73.7448 271.958 76.9793 275.762 80.5419 279.219C84.1045 282.675 88.0248 285.813 92.1935 288.546C96.402 291.305 100.901 293.674 105.565 295.588C115.27 299.571 125.579 301.59 136.207 301.59H348.724H362.148ZM362.148 302.667H348.724H136.207C92.117 302.667 56.3743 267.988 56.3743 225.21C56.3743 184.494 88.7511 151.116 129.889 147.992C136.693 100.881 178.397 64.6282 228.829 64.6282C266.243 64.6282 298.854 84.5795 315.974 114.117C326.235 110.664 337.253 108.789 348.724 108.789C403.904 108.789 448.637 152.19 448.637 205.728C448.637 221.302 444.852 236.017 438.126 249.057C427.76 280.166 397.662 302.667 362.148 302.667Z" fill="white" fill-opacity="0.5"/>
</g>
</g>
<defs>
<filter id="filter0_f_129_722" x="0.197144" y="2.16479" width="452.44" height="410.058" filterUnits="userSpaceOnUse" color-interpolation-filters="sRGB">
<feFlood flood-opacity="0" result="BackgroundImageFix"/>
<feBlend mode="normal" in="SourceGraphic" in2="BackgroundImageFix" result="shape"/>
<feGaussianBlur stdDeviation="2" result="effect1_foregroundBlur_129_722"/>
</filter>
<filter id="filter1_f_129_722" x="92.9619" y="0.56543" width="149.769" height="142.533" filterUnits="userSpaceOnUse" color-interpolation-filters="sRGB">
<feFlood flood-opacity="0" result="BackgroundImageFix"/>
<feBlend mode="normal" in="SourceGraphic" in2="BackgroundImageFix" result="shape"/>
<feGaussianBlur stdDeviation="10" result="effect1_foregroundBlur_129_722"/>
</filter>
<filter id="filter2_d_129_722" x="36.3743" y="36.6282" width="452.263" height="298.039" filterUnits="userSpaceOnUse" color-interpolation-filters="sRGB">
<feFlood flood-opacity="0" result="BackgroundImageFix"/>
<feColorMatrix in="SourceAlpha" type="matrix" values="0 0 0 0 0 0 0 0 0 0 0 0 0 0 0 0 0 0 127 0" result="hardAlpha"/>
<feOffset dx="10" dy="2"/>
<feGaussianBlur stdDeviation="15"/>
<feColorMatrix type="matrix" values="0 0 0 0 0.258824 0 0 0 0 0.627451 0 0 0 0 0.941176 0 0 0 0.596 0"/>
<feBlend mode="normal" in2="BackgroundImageFix" result="effect1_dropShadow_129_722"/>
<feBlend mode="normal" in="SourceGraphic" in2="effect1_dropShadow_129_722" result="shape"/>
</filter>
<linearGradient id="paint0_linear_129_722" x1="240.358" y1="315.592" x2="180.972" y2="293.153" gradientUnits="userSpaceOnUse">
<stop stop-color="#FFD100"/>
<stop offset="1" stop-color="#FFF0AA"/>
</linearGradient>
<linearGradient id="paint1_linear_129_722" x1="353.147" y1="328.777" x2="327.074" y2="318.926" gradientUnits="userSpaceOnUse">
<stop stop-color="#FFD100"/>
<stop offset="1" stop-color="#FFF0AA"/>
</linearGradient>
<linearGradient id="paint2_linear_129_722" x1="123.348" y1="356.261" x2="97.2757" y2="346.41" gradientUnits="userSpaceOnUse">
<stop stop-color="#FFD100"/>
<stop offset="1" stop-color="#FFF0AA"/>
</linearGradient>
<linearGradient id="paint3_linear_129_722" x1="252.533" y1="64.6304" x2="360.726" y2="334.237" gradientUnits="userSpaceOnUse">
<stop stop-color="white" stop-opacity="0.604"/>
<stop offset="1" stop-color="white" stop-opacity="0.2"/>
</linearGradient>
</defs>
</svg>
