<svg width="466" height="377" viewBox="0 0 466 377" fill="none" xmlns="http://www.w3.org/2000/svg">
<g filter="url(#filter0_f_129_486)">
<path d="M120.512 315.365C122.288 315.385 140.292 342.66 140.292 353.26C140.292 358.35 138.208 363.231 134.499 366.83C130.789 370.43 125.758 372.452 120.512 372.452C115.266 372.452 110.234 370.43 106.525 366.83C102.815 363.231 100.731 358.35 100.731 353.26C100.731 342.661 118.737 315.346 120.512 315.365Z" fill="#42A0F0"/>
<path d="M105.431 360.432C107.407 361.019 109.919 358.607 111.041 355.046C112.164 351.485 111.471 348.122 109.495 347.536C107.518 346.95 105.006 349.361 103.884 352.923C102.762 356.484 103.454 359.846 105.431 360.432Z" fill="white"/>
<path d="M223.755 315.365C225.531 315.385 243.535 342.66 243.535 353.26C243.535 358.35 241.451 363.231 237.742 366.83C234.032 370.43 229.001 372.452 223.755 372.452C218.509 372.452 213.477 370.43 209.768 366.83C206.058 363.231 203.974 358.35 203.974 353.26C203.974 342.661 221.98 315.346 223.755 315.365Z" fill="#42A0F0"/>
<path d="M208.674 360.432C210.651 361.019 213.162 358.607 214.285 355.046C215.407 351.485 214.714 348.122 212.738 347.536C210.761 346.95 208.249 349.361 207.127 352.923C206.005 356.484 206.698 359.846 208.674 360.432Z" fill="white"/>
<path d="M326.998 315.365C328.774 315.385 346.778 342.66 346.778 353.26C346.778 358.35 344.694 363.231 340.985 366.83C337.275 370.43 332.244 372.452 326.998 372.452C321.752 372.452 316.72 370.43 313.011 366.83C309.301 363.231 307.217 358.35 307.217 353.26C307.217 342.661 325.223 315.346 326.998 315.365Z" fill="#42A0F0"/>
<path d="M311.917 360.432C313.893 361.019 316.405 358.607 317.527 355.046C318.649 351.485 317.957 348.122 315.98 347.536C314.004 346.95 311.492 349.361 310.37 352.923C309.248 356.484 309.94 359.846 311.917 360.432Z" fill="white"/>
<path d="M172.688 231.352C174.465 231.371 192.469 258.646 192.469 269.246C192.469 274.336 190.385 279.218 186.675 282.817C182.966 286.416 177.935 288.438 172.688 288.438C167.442 288.438 162.411 286.416 158.702 282.817C154.992 279.218 152.908 274.336 152.908 269.246C152.908 258.647 170.913 231.332 172.688 231.352Z" fill="#42A0F0"/>
<path d="M157.607 276.419C159.584 277.005 162.096 274.593 163.218 271.032C164.34 267.471 163.648 264.109 161.671 263.523C159.695 262.936 157.183 265.348 156.06 268.909C154.938 272.47 155.631 275.832 157.607 276.419Z" fill="white"/>
<path d="M281.482 231.352C283.258 231.371 301.262 258.646 301.262 269.246C301.262 274.336 299.178 279.218 295.469 282.817C291.759 286.416 286.728 288.438 281.482 288.438C276.236 288.438 271.204 286.416 267.495 282.817C263.785 279.218 261.701 274.336 261.701 269.246C261.701 258.647 279.707 231.332 281.482 231.352Z" fill="#42A0F0"/>
<path d="M266.401 276.419C268.377 277.005 270.889 274.593 272.011 271.032C273.133 267.471 272.441 264.109 270.464 263.523C268.488 262.936 265.976 265.348 264.854 268.909C263.732 272.47 264.424 275.832 266.401 276.419Z" fill="white"/>
<path d="M118.79 7.01429C126.572 7.01239 134.334 7.77528 141.958 9.29128C156.671 12.2314 170.64 17.9637 183.063 26.1587C200.274 37.4765 214.024 53.0834 222.87 71.3392C231.715 89.595 235.328 109.826 233.331 129.905C231.333 149.984 223.797 169.17 211.515 185.447C199.234 201.724 182.66 214.49 163.536 222.404C156.584 225.27 149.355 227.459 141.957 228.937C125.914 232.093 109.363 231.896 93.4044 228.36C77.4463 224.823 62.4481 218.028 49.4089 208.426C36.3698 198.825 25.589 186.638 17.7847 172.677C9.98037 158.717 5.33177 143.303 4.14851 127.462C16.7281 130.319 29.7954 130.502 42.455 128.001C53.8151 125.743 64.6059 121.338 74.2116 115.036C88.4906 105.683 99.6675 92.513 106.388 77.1217C108.659 71.909 110.392 66.491 111.562 60.9469C114.057 49.0679 113.965 36.8141 111.291 24.9717C109.947 19.0501 107.958 13.2837 105.359 7.76934C109.817 7.26596 114.302 7.01385 118.79 7.01429V7.01429Z" fill="#713FFD"/>
<g filter="url(#filter1_f_129_486)">
<path d="M196.579 41.668C170.774 19.1248 136.969 14.7354 121.074 31.8639C105.178 48.9924 113.211 81.1527 139.016 103.696C164.82 126.239 198.625 130.629 214.521 113.5C230.417 96.3715 222.384 64.2112 196.579 41.668Z" fill="#A586FC"/>
</g>
<g filter="url(#filter2_d_129_486)">
<path d="M326.086 303.518H113.57C92.9544 303.503 73.1439 295.751 58.2859 281.885C43.4279 268.018 34.6744 249.113 33.8579 229.127C33.0413 209.14 40.2251 189.622 53.9053 174.658C67.5855 159.694 86.7014 150.445 107.251 148.847C110.182 128.769 119.526 110.089 133.97 95.4331C148.413 80.7773 167.229 70.8839 187.77 67.1446C208.311 63.4053 229.544 66.0085 248.481 74.5877C267.417 83.167 283.105 97.2907 293.337 114.972C312.104 108.669 332.381 107.932 351.582 112.856C370.782 117.78 388.035 128.142 401.141 142.619C414.246 157.097 422.61 175.034 425.166 194.142C427.721 213.251 424.352 232.665 415.488 249.908C410.287 265.486 400.132 279.066 386.482 288.697C372.832 298.329 356.388 303.517 339.51 303.518H326.086Z" fill="url(#paint0_linear_129_486)"/>
<path d="M339.511 302.441C348.08 302.441 356.506 301.113 364.554 298.495C372.337 295.963 379.643 292.268 386.27 287.513C392.821 282.812 398.564 277.181 403.339 270.777C408.173 264.293 411.905 257.16 414.432 249.576L414.458 249.498L414.496 249.425C417.856 242.911 420.444 236.02 422.187 228.943C423.981 221.662 424.89 214.137 424.89 206.579C424.89 200.074 424.215 193.574 422.883 187.258C421.585 181.104 419.648 175.05 417.126 169.265C414.65 163.585 411.585 158.107 408.017 152.982C404.482 147.906 400.422 143.132 395.951 138.794C391.48 134.456 386.56 130.517 381.328 127.088C376.046 123.626 370.399 120.652 364.545 118.25C358.583 115.803 352.344 113.924 346.001 112.664C339.491 111.372 332.792 110.717 326.087 110.717C314.986 110.717 304.09 112.489 293.701 115.985L292.825 116.28L292.37 115.495C283.915 100.909 271.617 88.66 256.805 80.0714C249.315 75.7279 241.267 72.3714 232.886 70.0951C224.24 67.7468 215.259 66.5561 206.192 66.5561C193.998 66.5561 182.094 68.6855 170.811 72.8852C159.912 76.9422 149.914 82.8028 141.094 90.304C132.324 97.7621 125.047 106.562 119.464 116.459C113.743 126.599 110.005 137.545 108.351 148.992L108.227 149.849L107.338 149.916C97.3936 150.672 87.8254 153.212 78.8998 157.467C70.2269 161.601 62.4824 167.193 55.8813 174.088C42.3174 188.254 34.8474 206.712 34.8474 226.061C34.8474 236.372 36.9287 246.375 41.0334 255.791C43.0064 260.316 45.4483 264.681 48.2915 268.765C51.1079 272.809 54.3423 276.613 57.9049 280.069C61.4676 283.526 65.3878 286.664 69.5565 289.397C73.765 292.155 78.2639 294.525 82.9283 296.439C92.6329 300.421 102.942 302.441 113.57 302.441H326.087H339.511ZM339.511 303.518H326.087H113.57C69.48 303.518 33.7373 268.839 33.7373 226.061C33.7373 185.345 66.1141 151.967 107.252 148.842C114.056 101.731 155.76 65.479 206.192 65.479C243.606 65.479 276.217 85.4303 293.337 114.967C303.598 111.515 314.616 109.64 326.087 109.64C381.267 109.64 426 153.041 426 206.579C426 222.153 422.215 236.868 415.489 249.908C405.123 281.016 375.025 303.518 339.511 303.518Z" fill="white" fill-opacity="0.5"/>
</g>
</g>
<defs>
<filter id="filter0_f_129_486" x="0.148438" y="3.0144" width="429.852" height="373.437" filterUnits="userSpaceOnUse" color-interpolation-filters="sRGB">
<feFlood flood-opacity="0" result="BackgroundImageFix"/>
<feBlend mode="normal" in="SourceGraphic" in2="BackgroundImageFix" result="shape"/>
<feGaussianBlur stdDeviation="2" result="effect1_foregroundBlur_129_486"/>
</filter>
<filter id="filter1_f_129_486" x="92.9128" y="1.41528" width="149.769" height="142.533" filterUnits="userSpaceOnUse" color-interpolation-filters="sRGB">
<feFlood flood-opacity="0" result="BackgroundImageFix"/>
<feBlend mode="normal" in="SourceGraphic" in2="BackgroundImageFix" result="shape"/>
<feGaussianBlur stdDeviation="10" result="effect1_foregroundBlur_129_486"/>
</filter>
<filter id="filter2_d_129_486" x="13.7373" y="37.479" width="452.263" height="298.039" filterUnits="userSpaceOnUse" color-interpolation-filters="sRGB">
<feFlood flood-opacity="0" result="BackgroundImageFix"/>
<feColorMatrix in="SourceAlpha" type="matrix" values="0 0 0 0 0 0 0 0 0 0 0 0 0 0 0 0 0 0 127 0" result="hardAlpha"/>
<feOffset dx="10" dy="2"/>
<feGaussianBlur stdDeviation="15"/>
<feColorMatrix type="matrix" values="0 0 0 0 0.258824 0 0 0 0 0.627451 0 0 0 0 0.941176 0 0 0 0.596 0"/>
<feBlend mode="normal" in2="BackgroundImageFix" result="effect1_dropShadow_129_486"/>
<feBlend mode="normal" in="SourceGraphic" in2="effect1_dropShadow_129_486" result="shape"/>
</filter>
<linearGradient id="paint0_linear_129_486" x1="229.896" y1="65.4817" x2="338.089" y2="335.088" gradientUnits="userSpaceOnUse">
<stop stop-color="white" stop-opacity="0.604"/>
<stop offset="1" stop-color="white" stop-opacity="0.2"/>
</linearGradient>
</defs>
</svg>
