<svg width="464" height="381" viewBox="0 0 464 381" fill="none" xmlns="http://www.w3.org/2000/svg">
<g filter="url(#filter0_f_129_738)">
<path d="M153.031 277.872C153.031 277.872 305.218 279.287 338.169 270.003C371.119 260.718 371.076 212.531 338.169 200.652C305.261 188.774 294.014 231.232 294.014 231.232" stroke="#D0D0D0" stroke-width="20" stroke-linecap="round"/>
<path d="M103.1 327.437C103.1 327.437 214.789 317.646 264.027 327.437C313.265 337.228 297.586 365.315 274.251 366.599C250.916 367.883 229.383 353.006 229.383 353.006" stroke="#D0D0D0" stroke-width="20" stroke-linecap="round"/>
<path d="M340.822 327.365H385.228" stroke="#D0D0D0" stroke-width="20" stroke-linecap="round"/>
<path d="M119.262 6.62708C127.044 6.62518 134.806 7.38807 142.43 8.90407C157.143 11.8442 171.112 17.5765 183.535 25.7715C200.745 37.0893 214.496 52.6962 223.341 70.952C232.187 89.2078 235.8 109.438 233.802 129.517C231.804 149.596 224.269 168.783 211.987 185.059C199.705 201.336 183.132 214.103 164.007 222.017C157.055 224.883 149.827 227.072 142.429 228.55C126.386 231.706 109.834 231.509 93.8761 227.972C77.918 224.436 62.9198 217.64 49.8806 208.039C36.8415 198.438 26.0606 186.251 18.2563 172.29C10.4521 158.329 5.80345 142.915 4.62019 127.075C17.1997 129.931 30.2671 130.115 42.9267 127.614C54.2867 125.356 65.0776 120.951 74.6833 114.648C88.9623 105.296 100.139 92.1258 106.86 76.7345C109.13 71.5218 110.864 66.1038 112.034 60.5597C114.529 48.6807 114.436 36.4269 111.763 24.5845C110.418 18.6629 108.43 12.8965 105.831 7.38213C110.289 6.87875 114.774 6.62664 119.262 6.62708V6.62708Z" fill="#713FFD"/>
<g filter="url(#filter1_f_129_738)">
<path d="M197.051 41.2806C171.246 18.7374 137.442 14.3479 121.546 31.4764C105.65 48.605 113.683 80.7652 139.488 103.308C165.293 125.852 199.097 130.241 214.993 113.113C230.889 95.984 222.856 63.8238 197.051 41.2806Z" fill="#A586FC"/>
</g>
<g filter="url(#filter2_d_129_738)">
<path d="M323.613 300.976H111.097C90.4814 300.96 70.6709 293.208 55.8129 279.342C40.9549 265.476 32.2014 246.57 31.3848 226.584C30.5683 206.597 37.7521 187.079 51.4323 172.115C65.1125 157.151 84.2284 147.902 104.778 146.304C107.709 126.227 117.053 107.546 131.497 92.8904C145.94 78.2346 164.756 68.3411 185.297 64.6019C205.838 60.8626 227.071 63.4657 246.007 72.045C264.944 80.6243 280.632 94.748 290.864 112.429C309.631 106.126 329.908 105.389 349.109 110.314C368.309 115.238 385.562 125.599 398.668 140.077C411.773 154.554 420.137 172.491 422.693 191.6C425.248 210.708 421.879 230.122 413.015 247.365C407.814 262.944 397.659 276.523 384.009 286.155C370.359 295.786 353.915 300.975 337.037 300.976H323.613Z" fill="url(#paint0_linear_129_738)"/>
<path d="M337.037 299.898C345.607 299.898 354.032 298.571 362.08 295.952C369.863 293.42 377.169 289.725 383.796 284.97C390.348 280.27 396.09 274.639 400.865 268.234C405.699 261.75 409.432 254.617 411.959 247.034L411.984 246.956L412.022 246.883C415.383 240.369 417.97 233.477 419.713 226.401C421.507 219.119 422.416 211.595 422.416 204.036C422.416 197.531 421.741 191.031 420.409 184.716C419.111 178.561 417.174 172.508 414.652 166.723C412.176 161.043 409.111 155.565 405.543 150.44C402.008 145.364 397.949 140.59 393.477 136.252C389.006 131.913 384.086 127.975 378.854 124.545C373.572 121.083 367.926 118.11 362.071 115.707C356.109 113.26 349.87 111.381 343.527 110.122C337.018 108.829 330.318 108.174 323.614 108.174C312.513 108.174 301.616 109.947 291.227 113.443L290.351 113.737L289.896 112.953C281.441 98.3669 269.144 86.1175 254.332 77.5289C246.841 73.1854 238.793 69.8289 230.412 67.5526C221.766 65.2043 212.785 64.0136 203.719 64.0136C191.524 64.0136 179.62 66.1431 168.338 70.3427C157.438 74.3998 147.44 80.2603 138.62 87.7615C129.851 95.2196 122.573 104.02 116.99 113.917C111.27 124.057 107.531 135.002 105.877 146.449L105.754 147.306L104.865 147.374C94.9198 148.129 85.3517 150.669 76.426 154.924C67.7531 159.059 60.0086 164.651 53.4075 171.545C39.8437 185.712 32.3737 204.17 32.3737 223.518C32.3737 233.83 34.4549 243.832 38.5597 253.248C40.5326 257.774 42.9746 262.139 45.8177 266.222C48.6341 270.267 51.8685 274.07 55.4312 277.527C58.9938 280.984 62.914 284.122 67.0828 286.854C71.2913 289.613 75.7901 291.982 80.4545 293.896C90.1592 297.879 100.469 299.898 111.097 299.898H323.614H337.037ZM337.037 300.975H323.614H111.097C67.0063 300.975 31.2635 266.296 31.2635 223.518C31.2635 182.802 63.6404 149.424 104.778 146.3C111.583 99.1889 153.287 62.9365 203.719 62.9365C241.133 62.9365 273.743 82.8878 290.864 112.425C301.124 108.972 312.142 107.097 323.614 107.097C378.793 107.097 423.526 150.499 423.526 204.036C423.526 219.61 419.741 234.326 413.015 247.365C402.649 278.474 372.551 300.975 337.037 300.975Z" fill="white" fill-opacity="0.5"/>
</g>
</g>
<defs>
<filter id="filter0_f_129_738" x="0.620239" y="2.6272" width="426.906" height="378.051" filterUnits="userSpaceOnUse" color-interpolation-filters="sRGB">
<feFlood flood-opacity="0" result="BackgroundImageFix"/>
<feBlend mode="normal" in="SourceGraphic" in2="BackgroundImageFix" result="shape"/>
<feGaussianBlur stdDeviation="2" result="effect1_foregroundBlur_129_738"/>
</filter>
<filter id="filter1_f_129_738" x="93.3849" y="1.02783" width="149.769" height="142.533" filterUnits="userSpaceOnUse" color-interpolation-filters="sRGB">
<feFlood flood-opacity="0" result="BackgroundImageFix"/>
<feBlend mode="normal" in="SourceGraphic" in2="BackgroundImageFix" result="shape"/>
<feGaussianBlur stdDeviation="10" result="effect1_foregroundBlur_129_738"/>
</filter>
<filter id="filter2_d_129_738" x="11.2635" y="34.9365" width="452.263" height="298.039" filterUnits="userSpaceOnUse" color-interpolation-filters="sRGB">
<feFlood flood-opacity="0" result="BackgroundImageFix"/>
<feColorMatrix in="SourceAlpha" type="matrix" values="0 0 0 0 0 0 0 0 0 0 0 0 0 0 0 0 0 0 127 0" result="hardAlpha"/>
<feOffset dx="10" dy="2"/>
<feGaussianBlur stdDeviation="15"/>
<feColorMatrix type="matrix" values="0 0 0 0 0.258824 0 0 0 0 0.627451 0 0 0 0 0.941176 0 0 0 0.596 0"/>
<feBlend mode="normal" in2="BackgroundImageFix" result="effect1_dropShadow_129_738"/>
<feBlend mode="normal" in="SourceGraphic" in2="effect1_dropShadow_129_738" result="shape"/>
</filter>
<linearGradient id="paint0_linear_129_738" x1="227.423" y1="62.939" x2="335.616" y2="332.546" gradientUnits="userSpaceOnUse">
<stop stop-color="white" stop-opacity="0.604"/>
<stop offset="1" stop-color="white" stop-opacity="0.2"/>
</linearGradient>
</defs>
</svg>
