<svg width="453" height="327" viewBox="0 0 453 327" fill="none" xmlns="http://www.w3.org/2000/svg">
<g filter="url(#filter0_f_129_751)">
<path d="M97.3706 264.989C99.1468 265.008 117.151 292.284 117.151 302.883C117.151 307.973 115.067 312.855 111.357 316.454C107.648 320.053 102.617 322.075 97.3706 322.075C92.1245 322.075 87.0932 320.053 83.3837 316.454C79.6741 312.855 77.5901 307.973 77.5901 302.883C77.5901 292.285 95.5954 264.969 97.3706 264.989Z" fill="#42A0F0"/>
<path d="M82.2895 310.056C84.266 310.643 86.778 308.231 87.9001 304.67C89.0223 301.109 88.3297 297.746 86.3532 297.16C84.3767 296.574 81.8647 298.986 80.7426 302.547C79.6204 306.108 80.313 309.47 82.2895 310.056Z" fill="white"/>
<path d="M200.613 264.989C202.389 265.008 220.394 292.284 220.394 302.883C220.394 307.973 218.31 312.855 214.6 316.454C210.891 320.053 205.859 322.075 200.613 322.075C195.367 322.075 190.336 320.053 186.626 316.454C182.917 312.855 180.833 307.973 180.833 302.883C180.833 292.285 198.838 264.969 200.613 264.989Z" fill="#42A0F0"/>
<path d="M185.533 310.056C187.509 310.643 190.021 308.231 191.143 304.67C192.265 301.109 191.573 297.746 189.596 297.16C187.62 296.574 185.108 298.986 183.986 302.547C182.864 306.108 183.556 309.47 185.533 310.056Z" fill="white"/>
<path d="M303.856 264.989C305.632 265.008 323.637 292.284 323.637 302.883C323.637 307.973 321.553 312.855 317.843 316.454C314.133 320.053 309.102 322.075 303.856 322.075C298.61 322.075 293.579 320.053 289.869 316.454C286.16 312.855 284.076 307.973 284.076 302.883C284.076 292.285 302.081 264.969 303.856 264.989Z" fill="#42A0F0"/>
<path d="M288.775 310.056C290.752 310.643 293.264 308.231 294.386 304.67C295.508 301.109 294.816 297.746 292.839 297.16C290.863 296.574 288.351 298.986 287.228 302.547C286.106 306.108 286.799 309.47 288.775 310.056Z" fill="white"/>
<path d="M149.547 180.975C151.323 180.994 169.327 208.269 169.327 218.869C169.327 223.959 167.243 228.841 163.533 232.44C159.824 236.039 154.793 238.061 149.547 238.061C144.3 238.061 139.269 236.039 135.56 232.44C131.85 228.841 129.766 223.959 129.766 218.869C129.766 208.271 147.771 180.955 149.547 180.975Z" fill="#42A0F0"/>
<path d="M134.466 226.043C136.443 226.629 138.954 224.217 140.077 220.656C141.199 217.095 140.506 213.733 138.53 213.147C136.553 212.56 134.041 214.972 132.919 218.533C131.797 222.094 132.49 225.456 134.466 226.043Z" fill="white"/>
<path d="M258.34 180.975C260.117 180.994 278.121 208.269 278.121 218.869C278.121 223.959 276.037 228.841 272.327 232.44C268.618 236.039 263.586 238.061 258.34 238.061C253.094 238.061 248.063 236.039 244.353 232.44C240.644 228.841 238.56 223.959 238.56 218.869C238.56 208.271 256.565 180.955 258.34 180.975Z" fill="#42A0F0"/>
<path d="M243.259 226.043C245.236 226.629 247.748 224.217 248.87 220.656C249.992 217.095 249.3 213.733 247.323 213.147C245.347 212.56 242.835 214.972 241.713 218.533C240.59 222.094 241.283 225.456 243.259 226.043Z" fill="white"/>
<g filter="url(#filter1_d_129_751)">
<path d="M312.938 266.066H100.422C79.8062 266.051 59.9957 258.298 45.1377 244.432C30.2797 230.566 21.5262 211.661 20.7097 191.674C19.8932 171.688 27.0769 152.169 40.7571 137.206C54.4373 122.242 73.5532 112.993 94.103 111.394C97.0336 91.317 106.378 72.6365 120.822 57.9807C135.265 43.3249 154.081 33.4315 174.622 29.6922C195.163 25.9529 216.396 28.5561 235.332 37.1354C254.269 45.7146 269.957 59.8383 280.189 77.5194C298.956 71.2162 319.233 70.4797 338.433 75.4039C357.634 80.3281 374.887 90.6897 387.993 105.167C401.098 119.644 409.462 137.581 412.018 156.69C414.573 175.798 411.204 195.212 402.34 212.455C397.138 228.034 386.984 241.613 373.334 251.245C359.684 260.876 343.24 266.065 326.362 266.066H312.938Z" fill="url(#paint0_linear_129_751)"/>
<path d="M326.362 264.988C334.931 264.988 343.357 263.66 351.405 261.042C359.188 258.51 366.494 254.815 373.121 250.06C379.672 245.359 385.415 239.729 390.19 233.324C395.024 226.84 398.757 219.707 401.283 212.124L401.309 212.046L401.347 211.973C404.707 205.458 407.295 198.567 409.038 191.491C410.832 184.209 411.741 176.684 411.741 169.126C411.741 162.621 411.066 156.121 409.734 149.806C408.436 143.651 406.499 137.598 403.977 131.813C401.501 126.133 398.436 120.654 394.868 115.53C391.333 110.453 387.274 105.68 382.802 101.342C378.331 97.0033 373.411 93.0648 368.179 89.6353C362.897 86.1731 357.251 83.1994 351.396 80.797C345.434 78.3502 339.195 76.471 332.852 75.2117C326.343 73.9193 319.643 73.2641 312.938 73.2641C301.838 73.2641 290.941 75.0366 280.552 78.5324L279.676 78.8273L279.221 78.0427C270.766 63.4568 258.468 51.2073 243.656 42.6187C236.166 38.2752 228.118 34.9187 219.737 32.6425C211.091 30.2942 202.11 29.1035 193.043 29.1035C180.849 29.1035 168.945 31.2329 157.663 35.4326C146.763 39.4896 136.765 45.3502 127.945 52.8514C119.175 60.3095 111.898 69.1093 106.315 79.0064C100.594 89.1466 96.8556 100.092 95.2023 111.539L95.0786 112.396L94.1895 112.464C84.2446 113.219 74.6765 115.759 65.7508 120.014C57.078 124.149 49.3334 129.741 42.7323 136.635C29.1685 150.802 21.6985 169.259 21.6985 188.608C21.6985 198.92 23.7798 208.922 27.8845 218.338C29.8574 222.864 32.2994 227.229 35.1426 231.312C37.9589 235.357 41.1934 239.16 44.756 242.617C48.3187 246.073 52.2389 249.212 56.4076 251.944C60.6161 254.703 65.115 257.072 69.7794 258.986C79.484 262.969 89.7935 264.988 100.421 264.988H312.938H326.362ZM326.362 266.065H312.938H100.421C56.3311 266.065 20.5884 231.386 20.5884 188.608C20.5884 147.892 52.9652 114.514 94.1029 111.39C100.907 64.2787 142.612 28.0264 193.043 28.0264C230.457 28.0264 263.068 47.9777 280.188 77.5147C290.449 74.0623 301.467 72.187 312.938 72.187C368.118 72.187 412.851 115.589 412.851 169.126C412.851 184.7 409.066 199.415 402.34 212.455C391.974 243.564 361.876 266.065 326.362 266.065Z" fill="white" fill-opacity="0.5"/>
</g>
</g>
<defs>
<filter id="filter0_f_129_751" x="16.5884" y="24.0264" width="400.263" height="302.049" filterUnits="userSpaceOnUse" color-interpolation-filters="sRGB">
<feFlood flood-opacity="0" result="BackgroundImageFix"/>
<feBlend mode="normal" in="SourceGraphic" in2="BackgroundImageFix" result="shape"/>
<feGaussianBlur stdDeviation="2" result="effect1_foregroundBlur_129_751"/>
</filter>
<filter id="filter1_d_129_751" x="0.588379" y="0.0263672" width="452.263" height="298.04" filterUnits="userSpaceOnUse" color-interpolation-filters="sRGB">
<feFlood flood-opacity="0" result="BackgroundImageFix"/>
<feColorMatrix in="SourceAlpha" type="matrix" values="0 0 0 0 0 0 0 0 0 0 0 0 0 0 0 0 0 0 127 0" result="hardAlpha"/>
<feOffset dx="10" dy="2"/>
<feGaussianBlur stdDeviation="15"/>
<feColorMatrix type="matrix" values="0 0 0 0 0.258824 0 0 0 0 0.627451 0 0 0 0 0.941176 0 0 0 0.596 0"/>
<feBlend mode="normal" in2="BackgroundImageFix" result="effect1_dropShadow_129_751"/>
<feBlend mode="normal" in="SourceGraphic" in2="effect1_dropShadow_129_751" result="shape"/>
</filter>
<linearGradient id="paint0_linear_129_751" x1="216.748" y1="28.0293" x2="324.941" y2="297.636" gradientUnits="userSpaceOnUse">
<stop stop-color="white" stop-opacity="0.604"/>
<stop offset="1" stop-color="white" stop-opacity="0.2"/>
</linearGradient>
</defs>
</svg>
