<svg width="473" height="355" viewBox="0 0 473 355" fill="none" xmlns="http://www.w3.org/2000/svg">
<g filter="url(#filter0_f_129_8)">
<path d="M145.463 202.114L223.308 317.033" stroke="#42A0F0" stroke-width="9" stroke-linecap="round"/>
<path d="M164.253 230.349L171.848 197.548" stroke="#42A0F0" stroke-width="9" stroke-linecap="round"/>
<path d="M164.244 230.343L128.261 222.693" stroke="#42A0F0" stroke-width="9" stroke-linecap="round"/>
<path d="M205.762 291.645L241.052 299.693" stroke="#42A0F0" stroke-width="9" stroke-linecap="round"/>
<path d="M205.753 291.638L197.465 324.838" stroke="#42A0F0" stroke-width="9" stroke-linecap="round"/>
<path d="M218.881 200.39L149.938 320.051" stroke="#42A0F0" stroke-width="9" stroke-linecap="round"/>
<path d="M201.77 229.533L236.363 219.176" stroke="#42A0F0" stroke-width="9" stroke-linecap="round"/>
<path d="M201.797 229.515L190.941 196.932" stroke="#42A0F0" stroke-width="9" stroke-linecap="round"/>
<path d="M164.973 293.333L175.108 325.562" stroke="#42A0F0" stroke-width="9" stroke-linecap="round"/>
<path d="M165.001 293.313L129.687 303.317" stroke="#42A0F0" stroke-width="9" stroke-linecap="round"/>
<path d="M257.21 258.193L110.422 262.936" stroke="#42A0F0" stroke-width="9" stroke-linecap="round"/>
<path d="M221.317 259.027L248.299 281.62" stroke="#42A0F0" stroke-width="9" stroke-linecap="round"/>
<path d="M221.253 259.082L246.564 234.161" stroke="#42A0F0" stroke-width="9" stroke-linecap="round"/>
<path d="M143.093 261.611L117.758 285.779" stroke="#42A0F0" stroke-width="9" stroke-linecap="round"/>
<path d="M143.031 261.666L116.021 238.321" stroke="#42A0F0" stroke-width="9" stroke-linecap="round"/>
<path d="M339.641 274.725L310.021 336.097" stroke="#42A0F0" stroke-width="6.00313" stroke-linecap="round"/>
<path d="M332.267 289.66L348.988 283.481" stroke="#42A0F0" stroke-width="6.00313" stroke-linecap="round"/>
<path d="M332.25 289.672L325.725 273.903" stroke="#42A0F0" stroke-width="6.00313" stroke-linecap="round"/>
<path d="M316.487 322.404L322.642 338.021" stroke="#42A0F0" stroke-width="6.00313" stroke-linecap="round"/>
<path d="M316.47 322.417L299.379 328.444" stroke="#42A0F0" stroke-width="6.00313" stroke-linecap="round"/>
<path d="M360.757 302.092L288.342 309.11" stroke="#42A0F0" stroke-width="6.00313" stroke-linecap="round"/>
<path d="M343.04 303.588L357.224 314.018" stroke="#42A0F0" stroke-width="6.00313" stroke-linecap="round"/>
<path d="M342.965 303.673L354.637 290.547" stroke="#42A0F0" stroke-width="6.00313" stroke-linecap="round"/>
<path d="M304.493 307.417L292.783 320.171" stroke="#42A0F0" stroke-width="6.00313" stroke-linecap="round"/>
<path d="M304.42 307.503L290.193 296.7" stroke="#42A0F0" stroke-width="6.00313" stroke-linecap="round"/>
<path d="M345.629 332.647L302.834 278.294" stroke="#42A0F0" stroke-width="6.00313" stroke-linecap="round"/>
<path d="M335.311 319.281L332.725 335.744" stroke="#42A0F0" stroke-width="6.00313" stroke-linecap="round"/>
<path d="M335.287 319.263L353.368 321.944" stroke="#42A0F0" stroke-width="6.00313" stroke-linecap="round"/>
<path d="M312.461 290.311L294.708 287.411" stroke="#42A0F0" stroke-width="6.00313" stroke-linecap="round"/>
<path d="M312.437 290.293L315.351 273.61" stroke="#42A0F0" stroke-width="6.00313" stroke-linecap="round"/>
<g filter="url(#filter1_d_129_8)">
<path d="M327.926 266.987H104.45C82.7707 266.972 61.9386 259.22 46.3143 245.354C30.6901 231.487 21.4851 212.582 20.6265 192.596C19.7678 172.609 27.3221 153.091 41.7078 138.127C56.0935 123.163 76.1953 113.914 97.8049 112.316C100.887 92.2384 110.713 73.5579 125.901 58.9021C141.09 44.2463 160.876 34.3529 182.476 30.6136C204.077 26.8743 226.404 29.4775 246.318 38.0567C266.231 46.636 282.728 60.7597 293.488 78.4408C313.222 72.1377 334.544 71.4012 354.735 76.325C374.925 81.2488 393.068 91.6099 406.849 106.087C420.631 120.563 429.427 138.5 432.114 157.608C434.802 176.716 431.26 196.129 421.941 213.372C416.472 228.952 405.794 242.533 391.439 252.166C377.085 261.798 359.791 266.987 342.042 266.987H327.926Z" fill="url(#paint0_linear_129_8)"/>
<path d="M342.043 265.909C351.055 265.909 359.916 264.581 368.38 261.963C376.564 259.431 384.248 255.735 391.217 250.98C398.106 246.279 404.145 240.648 409.166 234.243C414.25 227.758 418.174 220.625 420.831 213.04L420.858 212.962L420.898 212.889C424.43 206.376 427.15 199.485 428.983 192.409C430.869 185.127 431.825 177.603 431.825 170.047C431.825 163.542 431.115 157.042 429.714 150.726C428.349 144.572 426.313 138.518 423.661 132.734C421.057 127.054 417.834 121.575 414.082 116.451C410.365 111.374 406.096 106.601 401.394 102.262C396.692 97.9242 391.519 93.9857 386.017 90.5562C380.463 87.094 374.525 84.1203 368.369 81.7179C362.099 79.2711 355.538 77.3919 348.868 76.1326C342.023 74.8402 334.977 74.185 327.927 74.185C316.254 74.185 304.796 75.9575 293.871 79.4534L292.949 79.7483L292.471 78.9637C283.58 64.3778 270.648 52.1283 255.072 43.5397C247.195 39.1962 238.732 35.8397 229.919 33.5634C220.827 31.2151 211.383 30.0244 201.849 30.0244C189.025 30.0244 176.508 32.1538 164.643 36.3535C153.182 40.4105 142.668 46.2711 133.393 53.7723C124.171 61.2304 116.519 70.0302 110.648 79.9273C104.632 90.0675 100.701 101.013 98.9619 112.46L98.8318 113.317L97.8969 113.385C87.4391 114.14 77.3776 116.68 67.9916 120.935C58.8714 125.07 50.7275 130.662 43.786 137.556C29.5226 151.723 21.6674 170.18 21.6674 189.529C21.6674 199.84 23.856 209.843 28.1724 219.259C30.2471 223.785 32.815 228.15 35.8048 232.233C38.7664 236.278 42.1676 240.081 45.914 243.538C49.6604 246.994 53.7828 250.132 58.1665 252.865C62.592 255.624 67.3229 257.993 72.2279 259.907C82.433 263.89 93.2742 265.909 104.45 265.909H327.927H342.043ZM342.043 266.986H327.927H104.45C58.086 266.986 20.5 232.307 20.5 189.529C20.5 148.813 54.5466 115.435 97.8058 112.311C104.961 65.1996 148.816 28.9473 201.849 28.9473C241.192 28.9473 275.485 48.8987 293.488 78.4357C304.278 74.9833 315.865 73.1079 327.927 73.1079C385.954 73.1079 432.993 116.509 432.993 170.047C432.993 185.618 429.012 200.334 421.942 213.371C411.044 244.484 379.392 266.986 342.043 266.986Z" fill="white" fill-opacity="0.5"/>
</g>
</g>
<defs>
<filter id="filter0_f_129_8" x="16.5" y="24.9473" width="420.492" height="320.008" filterUnits="userSpaceOnUse" color-interpolation-filters="sRGB">
<feFlood flood-opacity="0" result="BackgroundImageFix"/>
<feBlend mode="normal" in="SourceGraphic" in2="BackgroundImageFix" result="shape"/>
<feGaussianBlur stdDeviation="2" result="effect1_foregroundBlur_129_8"/>
</filter>
<filter id="filter1_d_129_8" x="0.5" y="0.947266" width="472.492" height="298.04" filterUnits="userSpaceOnUse" color-interpolation-filters="sRGB">
<feFlood flood-opacity="0" result="BackgroundImageFix"/>
<feColorMatrix in="SourceAlpha" type="matrix" values="0 0 0 0 0 0 0 0 0 0 0 0 0 0 0 0 0 0 127 0" result="hardAlpha"/>
<feOffset dx="10" dy="2"/>
<feGaussianBlur stdDeviation="15"/>
<feColorMatrix type="matrix" values="0 0 0 0 0.258824 0 0 0 0 0.627451 0 0 0 0 0.941176 0 0 0 0.596 0"/>
<feBlend mode="normal" in2="BackgroundImageFix" result="effect1_dropShadow_129_8"/>
<feBlend mode="normal" in="SourceGraphic" in2="effect1_dropShadow_129_8" result="shape"/>
</filter>
<linearGradient id="paint0_linear_129_8" x1="226.775" y1="28.9507" x2="331.045" y2="302.184" gradientUnits="userSpaceOnUse">
<stop stop-color="white" stop-opacity="0.604"/>
<stop offset="1" stop-color="white" stop-opacity="0.2"/>
</linearGradient>
</defs>
</svg>
