<svg width="473" height="377" viewBox="0 0 473 377" fill="none" xmlns="http://www.w3.org/2000/svg">
<g filter="url(#filter0_f_129_65)">
<path d="M206.453 186.741H285.92L240.237 248.638L293.651 249.571L181.538 372.003L208.703 278.658H158.972L206.453 186.741Z" fill="url(#paint0_linear_129_65)"/>
<path d="M329.245 251.887H364.135L344.078 279.064L367.53 279.473L318.306 333.227L330.233 292.244H308.403L329.245 251.887Z" fill="url(#paint1_linear_129_65)"/>
<path d="M87.5947 279.372H122.485L102.428 306.548L125.879 306.958L76.6551 360.712L88.5823 319.729H66.7521L87.5947 279.372Z" fill="url(#paint2_linear_129_65)"/>
<g filter="url(#filter1_d_129_65)">
<path d="M327.874 266.447H104.397C82.7185 266.432 61.8863 258.679 46.2621 244.813C30.6378 230.947 21.4329 212.042 20.5742 192.055C19.7156 172.068 27.2699 152.55 41.6555 137.586C56.0412 122.623 76.143 113.373 97.7526 111.775C100.834 91.6979 110.661 73.0174 125.849 58.3616C141.038 43.7058 160.824 33.8123 182.424 30.0731C204.025 26.3338 226.352 28.9369 246.265 37.5162C266.179 46.0955 282.676 60.2192 293.436 77.9002C313.17 71.5971 334.493 70.8606 354.684 75.7848C374.874 80.709 393.017 91.0706 406.799 105.548C420.58 120.025 429.375 137.962 432.063 157.071C434.75 176.179 431.207 195.593 421.886 212.836C416.416 228.415 405.738 241.994 391.384 251.626C377.03 261.257 359.738 266.446 341.99 266.447H327.874Z" fill="url(#paint3_linear_129_65)"/>
<path d="M341.99 265.369C351.001 265.369 359.862 264.042 368.325 261.423C376.508 258.891 384.192 255.196 391.161 250.441C398.05 245.741 404.089 240.11 409.11 233.706C414.193 227.222 418.118 220.089 420.775 212.505L420.802 212.427L420.842 212.354C424.376 205.84 427.097 198.949 428.93 191.872C430.816 184.59 431.772 177.066 431.772 169.507C431.772 163.003 431.062 156.502 429.661 150.187C428.296 144.032 426.26 137.979 423.608 132.194C421.004 126.514 417.781 121.036 414.029 115.911C410.312 110.835 406.043 106.061 401.341 101.723C396.639 97.3847 391.465 93.4461 385.963 90.0166C380.409 86.5544 374.472 83.5808 368.315 81.1784C362.046 78.7316 355.485 76.8524 348.814 75.593C341.97 74.3007 334.924 73.6454 327.874 73.6454C316.201 73.6454 304.743 75.4179 293.818 78.9137L292.896 79.2087L292.418 78.4241C283.527 63.8381 270.595 51.5887 255.019 43.0001C247.142 38.6566 238.679 35.3001 229.866 33.0238C220.774 30.6755 211.33 29.4848 201.796 29.4848C188.972 29.4848 176.455 31.6142 164.59 35.8139C153.129 39.871 142.615 45.7315 133.34 53.2327C124.118 60.6908 116.466 69.4907 110.595 79.3878C104.579 89.528 100.648 100.474 98.9089 111.921L98.7788 112.777L97.8439 112.845C87.3862 113.6 77.3246 116.141 67.9386 120.396C58.8184 124.53 50.6745 130.122 43.733 137.017C29.4696 151.183 21.6144 169.641 21.6144 188.989C21.6144 199.301 23.803 209.304 28.1194 218.719C30.1941 223.245 32.762 227.61 35.7518 231.693C38.7134 235.738 42.1147 239.541 45.861 242.998C49.6074 246.455 53.7298 249.593 58.1135 252.325C62.539 255.084 67.2699 257.453 72.1749 259.368C82.38 263.35 93.2212 265.369 104.397 265.369H327.874H341.99ZM341.99 266.447H327.874H104.397C58.0331 266.447 20.447 231.768 20.447 188.989C20.447 148.274 54.4936 114.895 97.7528 111.771C104.908 64.6601 148.763 28.4077 201.796 28.4077C241.14 28.4077 275.431 48.359 293.435 77.8961C304.225 74.4436 315.811 72.5683 327.874 72.5683C385.9 72.5683 432.94 115.97 432.94 169.507C432.94 185.081 428.96 199.797 421.886 212.836C410.986 243.945 379.335 266.447 341.99 266.447Z" fill="white" fill-opacity="0.5"/>
</g>
</g>
<defs>
<filter id="filter0_f_129_65" x="16.447" y="24.4077" width="420.492" height="351.595" filterUnits="userSpaceOnUse" color-interpolation-filters="sRGB">
<feFlood flood-opacity="0" result="BackgroundImageFix"/>
<feBlend mode="normal" in="SourceGraphic" in2="BackgroundImageFix" result="shape"/>
<feGaussianBlur stdDeviation="2" result="effect1_foregroundBlur_129_65"/>
</filter>
<filter id="filter1_d_129_65" x="0.447021" y="0.407715" width="472.492" height="298.039" filterUnits="userSpaceOnUse" color-interpolation-filters="sRGB">
<feFlood flood-opacity="0" result="BackgroundImageFix"/>
<feColorMatrix in="SourceAlpha" type="matrix" values="0 0 0 0 0 0 0 0 0 0 0 0 0 0 0 0 0 0 127 0" result="hardAlpha"/>
<feOffset dx="10" dy="2"/>
<feGaussianBlur stdDeviation="15"/>
<feColorMatrix type="matrix" values="0 0 0 0 0.258824 0 0 0 0 0.627451 0 0 0 0 0.941176 0 0 0 0.596 0"/>
<feBlend mode="normal" in2="BackgroundImageFix" result="effect1_dropShadow_129_65"/>
<feBlend mode="normal" in="SourceGraphic" in2="effect1_dropShadow_129_65" result="shape"/>
</filter>
<linearGradient id="paint0_linear_129_65" x1="213.921" y1="279.372" x2="152.287" y2="254.883" gradientUnits="userSpaceOnUse">
<stop stop-color="#FFD100"/>
<stop offset="1" stop-color="#FFF0AA"/>
</linearGradient>
<linearGradient id="paint1_linear_129_65" x1="332.526" y1="292.557" x2="305.467" y2="281.806" gradientUnits="userSpaceOnUse">
<stop stop-color="#FFD100"/>
<stop offset="1" stop-color="#FFF0AA"/>
</linearGradient>
<linearGradient id="paint2_linear_129_65" x1="90.876" y1="320.042" x2="63.8168" y2="309.291" gradientUnits="userSpaceOnUse">
<stop stop-color="#FFD100"/>
<stop offset="1" stop-color="#FFF0AA"/>
</linearGradient>
<linearGradient id="paint3_linear_129_65" x1="226.722" y1="28.4102" x2="330.993" y2="301.643" gradientUnits="userSpaceOnUse">
<stop stop-color="white" stop-opacity="0.604"/>
<stop offset="1" stop-color="white" stop-opacity="0.2"/>
</linearGradient>
</defs>
</svg>
