<svg width="474" height="347" viewBox="0 0 474 347" fill="none" xmlns="http://www.w3.org/2000/svg">
<g filter="url(#filter0_f_129_78)">
<path d="M148.913 243.343C148.913 243.343 308.95 244.758 343.599 235.474C378.249 226.189 378.204 178.002 343.599 166.123C308.994 154.245 297.168 196.703 297.168 196.703" stroke="#D0D0D0" stroke-width="20" stroke-linecap="round"/>
<path d="M96.4078 292.908C96.4078 292.908 213.857 283.117 265.634 292.908C317.411 302.699 300.924 330.787 276.386 332.07C251.847 333.354 229.203 318.477 229.203 318.477" stroke="#D0D0D0" stroke-width="20" stroke-linecap="round"/>
<path d="M346.39 292.836H393.085" stroke="#D0D0D0" stroke-width="20" stroke-linecap="round"/>
<g filter="url(#filter1_d_129_78)">
<path d="M328.294 266.447H104.817C83.1384 266.432 62.3062 258.679 46.682 244.813C31.0577 230.947 21.8528 212.042 20.9942 192.055C20.1355 172.068 27.6898 152.55 42.0755 137.586C56.4612 122.623 76.5629 113.373 98.1726 111.775C101.254 91.6979 111.08 73.0174 126.269 58.3616C141.457 43.7058 161.244 33.8123 182.844 30.0731C204.445 26.3338 226.772 28.9369 246.685 37.5162C266.599 46.0955 283.096 60.2192 293.855 77.9002C313.59 71.5971 334.913 70.8606 355.103 75.7848C375.294 80.709 393.437 91.0706 407.219 105.548C421 120.025 429.795 137.962 432.483 157.071C435.17 176.179 431.627 195.593 422.306 212.836C416.836 228.415 406.158 241.994 391.804 251.626C377.45 261.257 360.158 266.446 342.41 266.447H328.294Z" fill="url(#paint0_linear_129_78)"/>
<path d="M342.409 265.369C351.421 265.369 360.281 264.042 368.744 261.423C376.928 258.891 384.611 255.196 391.58 250.441C398.469 245.741 404.508 240.11 409.529 233.706C414.613 227.222 418.538 220.089 421.195 212.505L421.222 212.427L421.262 212.354C424.796 205.84 427.517 198.949 429.35 191.872C431.236 184.59 432.192 177.066 432.192 169.507C432.192 163.003 431.482 156.502 430.081 150.187C428.716 144.032 426.679 137.979 424.027 132.194C421.424 126.514 418.201 121.036 414.448 115.911C410.731 110.835 406.463 106.061 401.761 101.723C397.059 97.3847 391.885 93.4461 386.383 90.0166C380.829 86.5544 374.891 83.5808 368.735 81.1784C362.465 78.7316 355.904 76.8524 349.234 75.593C342.389 74.3007 335.344 73.6454 328.294 73.6454C316.62 73.6454 305.162 75.4179 294.237 78.9137L293.316 79.2087L292.837 78.4241C283.947 63.8381 271.015 51.5887 255.439 43.0001C247.562 38.6566 239.099 35.3001 230.286 33.0238C221.194 30.6755 211.749 29.4848 202.216 29.4848C189.392 29.4848 176.874 31.6142 165.01 35.8139C153.549 39.871 143.034 45.7315 133.76 53.2327C124.538 60.6908 116.885 69.4907 111.014 79.3878C104.999 89.528 101.067 100.474 99.3286 111.921L99.1985 112.777L98.2636 112.845C87.8058 113.6 77.7443 116.141 68.3583 120.396C59.2381 124.53 51.0942 130.122 44.1527 137.017C29.8893 151.183 22.0341 169.641 22.0341 188.989C22.0341 199.301 24.2227 209.304 28.5391 218.719C30.6138 223.245 33.1817 227.61 36.1715 231.693C39.1331 235.738 42.5343 239.541 46.2807 242.998C50.0271 246.455 54.1495 249.593 58.5332 252.325C62.9587 255.084 67.6896 257.453 72.5946 259.368C82.7997 263.35 93.6409 265.369 104.817 265.369H328.294H342.409ZM342.409 266.447H328.294H104.817C58.4527 266.447 20.8667 231.768 20.8667 188.989C20.8667 148.274 54.9133 114.895 98.1725 111.771C105.328 64.6601 149.183 28.4077 202.216 28.4077C241.559 28.4077 275.851 48.359 293.855 77.8961C304.644 74.4436 316.231 72.5683 328.294 72.5683C386.319 72.5683 433.359 115.97 433.359 169.507C433.359 185.081 429.379 199.797 422.306 212.836C411.406 243.945 379.755 266.447 342.409 266.447Z" fill="white" fill-opacity="0.5"/>
</g>
</g>
<defs>
<filter id="filter0_f_129_78" x="16.8667" y="24.4077" width="420.493" height="321.741" filterUnits="userSpaceOnUse" color-interpolation-filters="sRGB">
<feFlood flood-opacity="0" result="BackgroundImageFix"/>
<feBlend mode="normal" in="SourceGraphic" in2="BackgroundImageFix" result="shape"/>
<feGaussianBlur stdDeviation="2" result="effect1_foregroundBlur_129_78"/>
</filter>
<filter id="filter1_d_129_78" x="0.866699" y="0.407715" width="472.493" height="298.039" filterUnits="userSpaceOnUse" color-interpolation-filters="sRGB">
<feFlood flood-opacity="0" result="BackgroundImageFix"/>
<feColorMatrix in="SourceAlpha" type="matrix" values="0 0 0 0 0 0 0 0 0 0 0 0 0 0 0 0 0 0 127 0" result="hardAlpha"/>
<feOffset dx="10" dy="2"/>
<feGaussianBlur stdDeviation="15"/>
<feColorMatrix type="matrix" values="0 0 0 0 0.258824 0 0 0 0 0.627451 0 0 0 0 0.941176 0 0 0 0.596 0"/>
<feBlend mode="normal" in2="BackgroundImageFix" result="effect1_dropShadow_129_78"/>
<feBlend mode="normal" in="SourceGraphic" in2="effect1_dropShadow_129_78" result="shape"/>
</filter>
<linearGradient id="paint0_linear_129_78" x1="227.142" y1="28.4102" x2="331.413" y2="301.643" gradientUnits="userSpaceOnUse">
<stop stop-color="white" stop-opacity="0.604"/>
<stop offset="1" stop-color="white" stop-opacity="0.2"/>
</linearGradient>
</defs>
</svg>
